G04 #@! TF.GenerationSoftware,KiCad,Pcbnew,(5.1.5-0-10_14)*
G04 #@! TF.CreationDate,2020-03-21T14:00:30+11:00*
G04 #@! TF.ProjectId,Internal 5.25 Adapter,496e7465-726e-4616-9c20-352e32352041,rev?*
G04 #@! TF.SameCoordinates,Original*
G04 #@! TF.FileFunction,Soldermask,Top*
G04 #@! TF.FilePolarity,Negative*
%FSLAX46Y46*%
G04 Gerber Fmt 4.6, Leading zero omitted, Abs format (unit mm)*
G04 Created by KiCad (PCBNEW (5.1.5-0-10_14)) date 2020-03-21 14:00:30*
%MOMM*%
%LPD*%
G04 APERTURE LIST*
%ADD10C,0.100000*%
G04 APERTURE END LIST*
D10*
G36*
X93074142Y-48621242D02*
G01*
X93222101Y-48682529D01*
X93355255Y-48771499D01*
X93468501Y-48884745D01*
X93557471Y-49017899D01*
X93618758Y-49165858D01*
X93650000Y-49322925D01*
X93650000Y-49483075D01*
X93618758Y-49640142D01*
X93557471Y-49788101D01*
X93468501Y-49921255D01*
X93355255Y-50034501D01*
X93222101Y-50123471D01*
X93074142Y-50184758D01*
X92917075Y-50216000D01*
X92756925Y-50216000D01*
X92599858Y-50184758D01*
X92451899Y-50123471D01*
X92318745Y-50034501D01*
X92205499Y-49921255D01*
X92116529Y-49788101D01*
X92055242Y-49640142D01*
X92024000Y-49483075D01*
X92024000Y-49322925D01*
X92055242Y-49165858D01*
X92116529Y-49017899D01*
X92205499Y-48884745D01*
X92318745Y-48771499D01*
X92451899Y-48682529D01*
X92599858Y-48621242D01*
X92756925Y-48590000D01*
X92917075Y-48590000D01*
X93074142Y-48621242D01*
G37*
G36*
X90534142Y-48621242D02*
G01*
X90682101Y-48682529D01*
X90815255Y-48771499D01*
X90928501Y-48884745D01*
X91017471Y-49017899D01*
X91078758Y-49165858D01*
X91110000Y-49322925D01*
X91110000Y-49483075D01*
X91078758Y-49640142D01*
X91017471Y-49788101D01*
X90928501Y-49921255D01*
X90815255Y-50034501D01*
X90682101Y-50123471D01*
X90534142Y-50184758D01*
X90377075Y-50216000D01*
X90216925Y-50216000D01*
X90059858Y-50184758D01*
X89911899Y-50123471D01*
X89778745Y-50034501D01*
X89665499Y-49921255D01*
X89576529Y-49788101D01*
X89515242Y-49640142D01*
X89484000Y-49483075D01*
X89484000Y-49322925D01*
X89515242Y-49165858D01*
X89576529Y-49017899D01*
X89665499Y-48884745D01*
X89778745Y-48771499D01*
X89911899Y-48682529D01*
X90059858Y-48621242D01*
X90216925Y-48590000D01*
X90377075Y-48590000D01*
X90534142Y-48621242D01*
G37*
G36*
X87994142Y-48621242D02*
G01*
X88142101Y-48682529D01*
X88275255Y-48771499D01*
X88388501Y-48884745D01*
X88477471Y-49017899D01*
X88538758Y-49165858D01*
X88570000Y-49322925D01*
X88570000Y-49483075D01*
X88538758Y-49640142D01*
X88477471Y-49788101D01*
X88388501Y-49921255D01*
X88275255Y-50034501D01*
X88142101Y-50123471D01*
X87994142Y-50184758D01*
X87837075Y-50216000D01*
X87676925Y-50216000D01*
X87519858Y-50184758D01*
X87371899Y-50123471D01*
X87238745Y-50034501D01*
X87125499Y-49921255D01*
X87036529Y-49788101D01*
X86975242Y-49640142D01*
X86944000Y-49483075D01*
X86944000Y-49322925D01*
X86975242Y-49165858D01*
X87036529Y-49017899D01*
X87125499Y-48884745D01*
X87238745Y-48771499D01*
X87371899Y-48682529D01*
X87519858Y-48621242D01*
X87676925Y-48590000D01*
X87837075Y-48590000D01*
X87994142Y-48621242D01*
G37*
G36*
X85454142Y-48621242D02*
G01*
X85602101Y-48682529D01*
X85735255Y-48771499D01*
X85848501Y-48884745D01*
X85937471Y-49017899D01*
X85998758Y-49165858D01*
X86030000Y-49322925D01*
X86030000Y-49483075D01*
X85998758Y-49640142D01*
X85937471Y-49788101D01*
X85848501Y-49921255D01*
X85735255Y-50034501D01*
X85602101Y-50123471D01*
X85454142Y-50184758D01*
X85297075Y-50216000D01*
X85136925Y-50216000D01*
X84979858Y-50184758D01*
X84831899Y-50123471D01*
X84698745Y-50034501D01*
X84585499Y-49921255D01*
X84496529Y-49788101D01*
X84435242Y-49640142D01*
X84404000Y-49483075D01*
X84404000Y-49322925D01*
X84435242Y-49165858D01*
X84496529Y-49017899D01*
X84585499Y-48884745D01*
X84698745Y-48771499D01*
X84831899Y-48682529D01*
X84979858Y-48621242D01*
X85136925Y-48590000D01*
X85297075Y-48590000D01*
X85454142Y-48621242D01*
G37*
G36*
X82914142Y-48621242D02*
G01*
X83062101Y-48682529D01*
X83195255Y-48771499D01*
X83308501Y-48884745D01*
X83397471Y-49017899D01*
X83458758Y-49165858D01*
X83490000Y-49322925D01*
X83490000Y-49483075D01*
X83458758Y-49640142D01*
X83397471Y-49788101D01*
X83308501Y-49921255D01*
X83195255Y-50034501D01*
X83062101Y-50123471D01*
X82914142Y-50184758D01*
X82757075Y-50216000D01*
X82596925Y-50216000D01*
X82439858Y-50184758D01*
X82291899Y-50123471D01*
X82158745Y-50034501D01*
X82045499Y-49921255D01*
X81956529Y-49788101D01*
X81895242Y-49640142D01*
X81864000Y-49483075D01*
X81864000Y-49322925D01*
X81895242Y-49165858D01*
X81956529Y-49017899D01*
X82045499Y-48884745D01*
X82158745Y-48771499D01*
X82291899Y-48682529D01*
X82439858Y-48621242D01*
X82596925Y-48590000D01*
X82757075Y-48590000D01*
X82914142Y-48621242D01*
G37*
G36*
X80374142Y-48621242D02*
G01*
X80522101Y-48682529D01*
X80655255Y-48771499D01*
X80768501Y-48884745D01*
X80857471Y-49017899D01*
X80918758Y-49165858D01*
X80950000Y-49322925D01*
X80950000Y-49483075D01*
X80918758Y-49640142D01*
X80857471Y-49788101D01*
X80768501Y-49921255D01*
X80655255Y-50034501D01*
X80522101Y-50123471D01*
X80374142Y-50184758D01*
X80217075Y-50216000D01*
X80056925Y-50216000D01*
X79899858Y-50184758D01*
X79751899Y-50123471D01*
X79618745Y-50034501D01*
X79505499Y-49921255D01*
X79416529Y-49788101D01*
X79355242Y-49640142D01*
X79324000Y-49483075D01*
X79324000Y-49322925D01*
X79355242Y-49165858D01*
X79416529Y-49017899D01*
X79505499Y-48884745D01*
X79618745Y-48771499D01*
X79751899Y-48682529D01*
X79899858Y-48621242D01*
X80056925Y-48590000D01*
X80217075Y-48590000D01*
X80374142Y-48621242D01*
G37*
G36*
X77834142Y-48621242D02*
G01*
X77982101Y-48682529D01*
X78115255Y-48771499D01*
X78228501Y-48884745D01*
X78317471Y-49017899D01*
X78378758Y-49165858D01*
X78410000Y-49322925D01*
X78410000Y-49483075D01*
X78378758Y-49640142D01*
X78317471Y-49788101D01*
X78228501Y-49921255D01*
X78115255Y-50034501D01*
X77982101Y-50123471D01*
X77834142Y-50184758D01*
X77677075Y-50216000D01*
X77516925Y-50216000D01*
X77359858Y-50184758D01*
X77211899Y-50123471D01*
X77078745Y-50034501D01*
X76965499Y-49921255D01*
X76876529Y-49788101D01*
X76815242Y-49640142D01*
X76784000Y-49483075D01*
X76784000Y-49322925D01*
X76815242Y-49165858D01*
X76876529Y-49017899D01*
X76965499Y-48884745D01*
X77078745Y-48771499D01*
X77211899Y-48682529D01*
X77359858Y-48621242D01*
X77516925Y-48590000D01*
X77677075Y-48590000D01*
X77834142Y-48621242D01*
G37*
G36*
X75294142Y-48621242D02*
G01*
X75442101Y-48682529D01*
X75575255Y-48771499D01*
X75688501Y-48884745D01*
X75777471Y-49017899D01*
X75838758Y-49165858D01*
X75870000Y-49322925D01*
X75870000Y-49483075D01*
X75838758Y-49640142D01*
X75777471Y-49788101D01*
X75688501Y-49921255D01*
X75575255Y-50034501D01*
X75442101Y-50123471D01*
X75294142Y-50184758D01*
X75137075Y-50216000D01*
X74976925Y-50216000D01*
X74819858Y-50184758D01*
X74671899Y-50123471D01*
X74538745Y-50034501D01*
X74425499Y-49921255D01*
X74336529Y-49788101D01*
X74275242Y-49640142D01*
X74244000Y-49483075D01*
X74244000Y-49322925D01*
X74275242Y-49165858D01*
X74336529Y-49017899D01*
X74425499Y-48884745D01*
X74538745Y-48771499D01*
X74671899Y-48682529D01*
X74819858Y-48621242D01*
X74976925Y-48590000D01*
X75137075Y-48590000D01*
X75294142Y-48621242D01*
G37*
G36*
X72754142Y-48621242D02*
G01*
X72902101Y-48682529D01*
X73035255Y-48771499D01*
X73148501Y-48884745D01*
X73237471Y-49017899D01*
X73298758Y-49165858D01*
X73330000Y-49322925D01*
X73330000Y-49483075D01*
X73298758Y-49640142D01*
X73237471Y-49788101D01*
X73148501Y-49921255D01*
X73035255Y-50034501D01*
X72902101Y-50123471D01*
X72754142Y-50184758D01*
X72597075Y-50216000D01*
X72436925Y-50216000D01*
X72279858Y-50184758D01*
X72131899Y-50123471D01*
X71998745Y-50034501D01*
X71885499Y-49921255D01*
X71796529Y-49788101D01*
X71735242Y-49640142D01*
X71704000Y-49483075D01*
X71704000Y-49322925D01*
X71735242Y-49165858D01*
X71796529Y-49017899D01*
X71885499Y-48884745D01*
X71998745Y-48771499D01*
X72131899Y-48682529D01*
X72279858Y-48621242D01*
X72436925Y-48590000D01*
X72597075Y-48590000D01*
X72754142Y-48621242D01*
G37*
G36*
X70214142Y-48621242D02*
G01*
X70362101Y-48682529D01*
X70495255Y-48771499D01*
X70608501Y-48884745D01*
X70697471Y-49017899D01*
X70758758Y-49165858D01*
X70790000Y-49322925D01*
X70790000Y-49483075D01*
X70758758Y-49640142D01*
X70697471Y-49788101D01*
X70608501Y-49921255D01*
X70495255Y-50034501D01*
X70362101Y-50123471D01*
X70214142Y-50184758D01*
X70057075Y-50216000D01*
X69896925Y-50216000D01*
X69739858Y-50184758D01*
X69591899Y-50123471D01*
X69458745Y-50034501D01*
X69345499Y-49921255D01*
X69256529Y-49788101D01*
X69195242Y-49640142D01*
X69164000Y-49483075D01*
X69164000Y-49322925D01*
X69195242Y-49165858D01*
X69256529Y-49017899D01*
X69345499Y-48884745D01*
X69458745Y-48771499D01*
X69591899Y-48682529D01*
X69739858Y-48621242D01*
X69896925Y-48590000D01*
X70057075Y-48590000D01*
X70214142Y-48621242D01*
G37*
G36*
X67674142Y-48621242D02*
G01*
X67822101Y-48682529D01*
X67955255Y-48771499D01*
X68068501Y-48884745D01*
X68157471Y-49017899D01*
X68218758Y-49165858D01*
X68250000Y-49322925D01*
X68250000Y-49483075D01*
X68218758Y-49640142D01*
X68157471Y-49788101D01*
X68068501Y-49921255D01*
X67955255Y-50034501D01*
X67822101Y-50123471D01*
X67674142Y-50184758D01*
X67517075Y-50216000D01*
X67356925Y-50216000D01*
X67199858Y-50184758D01*
X67051899Y-50123471D01*
X66918745Y-50034501D01*
X66805499Y-49921255D01*
X66716529Y-49788101D01*
X66655242Y-49640142D01*
X66624000Y-49483075D01*
X66624000Y-49322925D01*
X66655242Y-49165858D01*
X66716529Y-49017899D01*
X66805499Y-48884745D01*
X66918745Y-48771499D01*
X67051899Y-48682529D01*
X67199858Y-48621242D01*
X67356925Y-48590000D01*
X67517075Y-48590000D01*
X67674142Y-48621242D01*
G37*
G36*
X65134142Y-48621242D02*
G01*
X65282101Y-48682529D01*
X65415255Y-48771499D01*
X65528501Y-48884745D01*
X65617471Y-49017899D01*
X65678758Y-49165858D01*
X65710000Y-49322925D01*
X65710000Y-49483075D01*
X65678758Y-49640142D01*
X65617471Y-49788101D01*
X65528501Y-49921255D01*
X65415255Y-50034501D01*
X65282101Y-50123471D01*
X65134142Y-50184758D01*
X64977075Y-50216000D01*
X64816925Y-50216000D01*
X64659858Y-50184758D01*
X64511899Y-50123471D01*
X64378745Y-50034501D01*
X64265499Y-49921255D01*
X64176529Y-49788101D01*
X64115242Y-49640142D01*
X64084000Y-49483075D01*
X64084000Y-49322925D01*
X64115242Y-49165858D01*
X64176529Y-49017899D01*
X64265499Y-48884745D01*
X64378745Y-48771499D01*
X64511899Y-48682529D01*
X64659858Y-48621242D01*
X64816925Y-48590000D01*
X64977075Y-48590000D01*
X65134142Y-48621242D01*
G37*
G36*
X62594142Y-48621242D02*
G01*
X62742101Y-48682529D01*
X62875255Y-48771499D01*
X62988501Y-48884745D01*
X63077471Y-49017899D01*
X63138758Y-49165858D01*
X63170000Y-49322925D01*
X63170000Y-49483075D01*
X63138758Y-49640142D01*
X63077471Y-49788101D01*
X62988501Y-49921255D01*
X62875255Y-50034501D01*
X62742101Y-50123471D01*
X62594142Y-50184758D01*
X62437075Y-50216000D01*
X62276925Y-50216000D01*
X62119858Y-50184758D01*
X61971899Y-50123471D01*
X61838745Y-50034501D01*
X61725499Y-49921255D01*
X61636529Y-49788101D01*
X61575242Y-49640142D01*
X61544000Y-49483075D01*
X61544000Y-49322925D01*
X61575242Y-49165858D01*
X61636529Y-49017899D01*
X61725499Y-48884745D01*
X61838745Y-48771499D01*
X61971899Y-48682529D01*
X62119858Y-48621242D01*
X62276925Y-48590000D01*
X62437075Y-48590000D01*
X62594142Y-48621242D01*
G37*
G36*
X60054142Y-48621242D02*
G01*
X60202101Y-48682529D01*
X60335255Y-48771499D01*
X60448501Y-48884745D01*
X60537471Y-49017899D01*
X60598758Y-49165858D01*
X60630000Y-49322925D01*
X60630000Y-49483075D01*
X60598758Y-49640142D01*
X60537471Y-49788101D01*
X60448501Y-49921255D01*
X60335255Y-50034501D01*
X60202101Y-50123471D01*
X60054142Y-50184758D01*
X59897075Y-50216000D01*
X59736925Y-50216000D01*
X59579858Y-50184758D01*
X59431899Y-50123471D01*
X59298745Y-50034501D01*
X59185499Y-49921255D01*
X59096529Y-49788101D01*
X59035242Y-49640142D01*
X59004000Y-49483075D01*
X59004000Y-49322925D01*
X59035242Y-49165858D01*
X59096529Y-49017899D01*
X59185499Y-48884745D01*
X59298745Y-48771499D01*
X59431899Y-48682529D01*
X59579858Y-48621242D01*
X59736925Y-48590000D01*
X59897075Y-48590000D01*
X60054142Y-48621242D01*
G37*
G36*
X57514142Y-48621242D02*
G01*
X57662101Y-48682529D01*
X57795255Y-48771499D01*
X57908501Y-48884745D01*
X57997471Y-49017899D01*
X58058758Y-49165858D01*
X58090000Y-49322925D01*
X58090000Y-49483075D01*
X58058758Y-49640142D01*
X57997471Y-49788101D01*
X57908501Y-49921255D01*
X57795255Y-50034501D01*
X57662101Y-50123471D01*
X57514142Y-50184758D01*
X57357075Y-50216000D01*
X57196925Y-50216000D01*
X57039858Y-50184758D01*
X56891899Y-50123471D01*
X56758745Y-50034501D01*
X56645499Y-49921255D01*
X56556529Y-49788101D01*
X56495242Y-49640142D01*
X56464000Y-49483075D01*
X56464000Y-49322925D01*
X56495242Y-49165858D01*
X56556529Y-49017899D01*
X56645499Y-48884745D01*
X56758745Y-48771499D01*
X56891899Y-48682529D01*
X57039858Y-48621242D01*
X57196925Y-48590000D01*
X57357075Y-48590000D01*
X57514142Y-48621242D01*
G37*
G36*
X54974142Y-48621242D02*
G01*
X55122101Y-48682529D01*
X55255255Y-48771499D01*
X55368501Y-48884745D01*
X55457471Y-49017899D01*
X55518758Y-49165858D01*
X55550000Y-49322925D01*
X55550000Y-49483075D01*
X55518758Y-49640142D01*
X55457471Y-49788101D01*
X55368501Y-49921255D01*
X55255255Y-50034501D01*
X55122101Y-50123471D01*
X54974142Y-50184758D01*
X54817075Y-50216000D01*
X54656925Y-50216000D01*
X54499858Y-50184758D01*
X54351899Y-50123471D01*
X54218745Y-50034501D01*
X54105499Y-49921255D01*
X54016529Y-49788101D01*
X53955242Y-49640142D01*
X53924000Y-49483075D01*
X53924000Y-49322925D01*
X53955242Y-49165858D01*
X54016529Y-49017899D01*
X54105499Y-48884745D01*
X54218745Y-48771499D01*
X54351899Y-48682529D01*
X54499858Y-48621242D01*
X54656925Y-48590000D01*
X54817075Y-48590000D01*
X54974142Y-48621242D01*
G37*
G36*
X52434142Y-48621242D02*
G01*
X52582101Y-48682529D01*
X52715255Y-48771499D01*
X52828501Y-48884745D01*
X52917471Y-49017899D01*
X52978758Y-49165858D01*
X53010000Y-49322925D01*
X53010000Y-49483075D01*
X52978758Y-49640142D01*
X52917471Y-49788101D01*
X52828501Y-49921255D01*
X52715255Y-50034501D01*
X52582101Y-50123471D01*
X52434142Y-50184758D01*
X52277075Y-50216000D01*
X52116925Y-50216000D01*
X51959858Y-50184758D01*
X51811899Y-50123471D01*
X51678745Y-50034501D01*
X51565499Y-49921255D01*
X51476529Y-49788101D01*
X51415242Y-49640142D01*
X51384000Y-49483075D01*
X51384000Y-49322925D01*
X51415242Y-49165858D01*
X51476529Y-49017899D01*
X51565499Y-48884745D01*
X51678745Y-48771499D01*
X51811899Y-48682529D01*
X51959858Y-48621242D01*
X52116925Y-48590000D01*
X52277075Y-48590000D01*
X52434142Y-48621242D01*
G37*
G36*
X57514142Y-43541242D02*
G01*
X57662101Y-43602529D01*
X57795255Y-43691499D01*
X57908501Y-43804745D01*
X57997471Y-43937899D01*
X58058758Y-44085858D01*
X58090000Y-44242925D01*
X58090000Y-44403075D01*
X58058758Y-44560142D01*
X57997471Y-44708101D01*
X57908501Y-44841255D01*
X57795255Y-44954501D01*
X57662101Y-45043471D01*
X57514142Y-45104758D01*
X57357075Y-45136000D01*
X57196925Y-45136000D01*
X57039858Y-45104758D01*
X56891899Y-45043471D01*
X56758745Y-44954501D01*
X56645499Y-44841255D01*
X56556529Y-44708101D01*
X56495242Y-44560142D01*
X56464000Y-44403075D01*
X56464000Y-44242925D01*
X56495242Y-44085858D01*
X56556529Y-43937899D01*
X56645499Y-43804745D01*
X56758745Y-43691499D01*
X56891899Y-43602529D01*
X57039858Y-43541242D01*
X57196925Y-43510000D01*
X57357075Y-43510000D01*
X57514142Y-43541242D01*
G37*
G36*
X52434142Y-43541242D02*
G01*
X52582101Y-43602529D01*
X52715255Y-43691499D01*
X52828501Y-43804745D01*
X52917471Y-43937899D01*
X52978758Y-44085858D01*
X53010000Y-44242925D01*
X53010000Y-44403075D01*
X52978758Y-44560142D01*
X52917471Y-44708101D01*
X52828501Y-44841255D01*
X52715255Y-44954501D01*
X52582101Y-45043471D01*
X52434142Y-45104758D01*
X52277075Y-45136000D01*
X52116925Y-45136000D01*
X51959858Y-45104758D01*
X51811899Y-45043471D01*
X51678745Y-44954501D01*
X51565499Y-44841255D01*
X51476529Y-44708101D01*
X51415242Y-44560142D01*
X51384000Y-44403075D01*
X51384000Y-44242925D01*
X51415242Y-44085858D01*
X51476529Y-43937899D01*
X51565499Y-43804745D01*
X51678745Y-43691499D01*
X51811899Y-43602529D01*
X51959858Y-43541242D01*
X52116925Y-43510000D01*
X52277075Y-43510000D01*
X52434142Y-43541242D01*
G37*
G36*
X93650000Y-45136000D02*
G01*
X92024000Y-45136000D01*
X92024000Y-43510000D01*
X93650000Y-43510000D01*
X93650000Y-45136000D01*
G37*
G36*
X90534142Y-43541242D02*
G01*
X90682101Y-43602529D01*
X90815255Y-43691499D01*
X90928501Y-43804745D01*
X91017471Y-43937899D01*
X91078758Y-44085858D01*
X91110000Y-44242925D01*
X91110000Y-44403075D01*
X91078758Y-44560142D01*
X91017471Y-44708101D01*
X90928501Y-44841255D01*
X90815255Y-44954501D01*
X90682101Y-45043471D01*
X90534142Y-45104758D01*
X90377075Y-45136000D01*
X90216925Y-45136000D01*
X90059858Y-45104758D01*
X89911899Y-45043471D01*
X89778745Y-44954501D01*
X89665499Y-44841255D01*
X89576529Y-44708101D01*
X89515242Y-44560142D01*
X89484000Y-44403075D01*
X89484000Y-44242925D01*
X89515242Y-44085858D01*
X89576529Y-43937899D01*
X89665499Y-43804745D01*
X89778745Y-43691499D01*
X89911899Y-43602529D01*
X90059858Y-43541242D01*
X90216925Y-43510000D01*
X90377075Y-43510000D01*
X90534142Y-43541242D01*
G37*
G36*
X54974142Y-43541242D02*
G01*
X55122101Y-43602529D01*
X55255255Y-43691499D01*
X55368501Y-43804745D01*
X55457471Y-43937899D01*
X55518758Y-44085858D01*
X55550000Y-44242925D01*
X55550000Y-44403075D01*
X55518758Y-44560142D01*
X55457471Y-44708101D01*
X55368501Y-44841255D01*
X55255255Y-44954501D01*
X55122101Y-45043471D01*
X54974142Y-45104758D01*
X54817075Y-45136000D01*
X54656925Y-45136000D01*
X54499858Y-45104758D01*
X54351899Y-45043471D01*
X54218745Y-44954501D01*
X54105499Y-44841255D01*
X54016529Y-44708101D01*
X53955242Y-44560142D01*
X53924000Y-44403075D01*
X53924000Y-44242925D01*
X53955242Y-44085858D01*
X54016529Y-43937899D01*
X54105499Y-43804745D01*
X54218745Y-43691499D01*
X54351899Y-43602529D01*
X54499858Y-43541242D01*
X54656925Y-43510000D01*
X54817075Y-43510000D01*
X54974142Y-43541242D01*
G37*
G36*
X87994142Y-43541242D02*
G01*
X88142101Y-43602529D01*
X88275255Y-43691499D01*
X88388501Y-43804745D01*
X88477471Y-43937899D01*
X88538758Y-44085858D01*
X88570000Y-44242925D01*
X88570000Y-44403075D01*
X88538758Y-44560142D01*
X88477471Y-44708101D01*
X88388501Y-44841255D01*
X88275255Y-44954501D01*
X88142101Y-45043471D01*
X87994142Y-45104758D01*
X87837075Y-45136000D01*
X87676925Y-45136000D01*
X87519858Y-45104758D01*
X87371899Y-45043471D01*
X87238745Y-44954501D01*
X87125499Y-44841255D01*
X87036529Y-44708101D01*
X86975242Y-44560142D01*
X86944000Y-44403075D01*
X86944000Y-44242925D01*
X86975242Y-44085858D01*
X87036529Y-43937899D01*
X87125499Y-43804745D01*
X87238745Y-43691499D01*
X87371899Y-43602529D01*
X87519858Y-43541242D01*
X87676925Y-43510000D01*
X87837075Y-43510000D01*
X87994142Y-43541242D01*
G37*
G36*
X85454142Y-43541242D02*
G01*
X85602101Y-43602529D01*
X85735255Y-43691499D01*
X85848501Y-43804745D01*
X85937471Y-43937899D01*
X85998758Y-44085858D01*
X86030000Y-44242925D01*
X86030000Y-44403075D01*
X85998758Y-44560142D01*
X85937471Y-44708101D01*
X85848501Y-44841255D01*
X85735255Y-44954501D01*
X85602101Y-45043471D01*
X85454142Y-45104758D01*
X85297075Y-45136000D01*
X85136925Y-45136000D01*
X84979858Y-45104758D01*
X84831899Y-45043471D01*
X84698745Y-44954501D01*
X84585499Y-44841255D01*
X84496529Y-44708101D01*
X84435242Y-44560142D01*
X84404000Y-44403075D01*
X84404000Y-44242925D01*
X84435242Y-44085858D01*
X84496529Y-43937899D01*
X84585499Y-43804745D01*
X84698745Y-43691499D01*
X84831899Y-43602529D01*
X84979858Y-43541242D01*
X85136925Y-43510000D01*
X85297075Y-43510000D01*
X85454142Y-43541242D01*
G37*
G36*
X82914142Y-43541242D02*
G01*
X83062101Y-43602529D01*
X83195255Y-43691499D01*
X83308501Y-43804745D01*
X83397471Y-43937899D01*
X83458758Y-44085858D01*
X83490000Y-44242925D01*
X83490000Y-44403075D01*
X83458758Y-44560142D01*
X83397471Y-44708101D01*
X83308501Y-44841255D01*
X83195255Y-44954501D01*
X83062101Y-45043471D01*
X82914142Y-45104758D01*
X82757075Y-45136000D01*
X82596925Y-45136000D01*
X82439858Y-45104758D01*
X82291899Y-45043471D01*
X82158745Y-44954501D01*
X82045499Y-44841255D01*
X81956529Y-44708101D01*
X81895242Y-44560142D01*
X81864000Y-44403075D01*
X81864000Y-44242925D01*
X81895242Y-44085858D01*
X81956529Y-43937899D01*
X82045499Y-43804745D01*
X82158745Y-43691499D01*
X82291899Y-43602529D01*
X82439858Y-43541242D01*
X82596925Y-43510000D01*
X82757075Y-43510000D01*
X82914142Y-43541242D01*
G37*
G36*
X80374142Y-43541242D02*
G01*
X80522101Y-43602529D01*
X80655255Y-43691499D01*
X80768501Y-43804745D01*
X80857471Y-43937899D01*
X80918758Y-44085858D01*
X80950000Y-44242925D01*
X80950000Y-44403075D01*
X80918758Y-44560142D01*
X80857471Y-44708101D01*
X80768501Y-44841255D01*
X80655255Y-44954501D01*
X80522101Y-45043471D01*
X80374142Y-45104758D01*
X80217075Y-45136000D01*
X80056925Y-45136000D01*
X79899858Y-45104758D01*
X79751899Y-45043471D01*
X79618745Y-44954501D01*
X79505499Y-44841255D01*
X79416529Y-44708101D01*
X79355242Y-44560142D01*
X79324000Y-44403075D01*
X79324000Y-44242925D01*
X79355242Y-44085858D01*
X79416529Y-43937899D01*
X79505499Y-43804745D01*
X79618745Y-43691499D01*
X79751899Y-43602529D01*
X79899858Y-43541242D01*
X80056925Y-43510000D01*
X80217075Y-43510000D01*
X80374142Y-43541242D01*
G37*
G36*
X77834142Y-43541242D02*
G01*
X77982101Y-43602529D01*
X78115255Y-43691499D01*
X78228501Y-43804745D01*
X78317471Y-43937899D01*
X78378758Y-44085858D01*
X78410000Y-44242925D01*
X78410000Y-44403075D01*
X78378758Y-44560142D01*
X78317471Y-44708101D01*
X78228501Y-44841255D01*
X78115255Y-44954501D01*
X77982101Y-45043471D01*
X77834142Y-45104758D01*
X77677075Y-45136000D01*
X77516925Y-45136000D01*
X77359858Y-45104758D01*
X77211899Y-45043471D01*
X77078745Y-44954501D01*
X76965499Y-44841255D01*
X76876529Y-44708101D01*
X76815242Y-44560142D01*
X76784000Y-44403075D01*
X76784000Y-44242925D01*
X76815242Y-44085858D01*
X76876529Y-43937899D01*
X76965499Y-43804745D01*
X77078745Y-43691499D01*
X77211899Y-43602529D01*
X77359858Y-43541242D01*
X77516925Y-43510000D01*
X77677075Y-43510000D01*
X77834142Y-43541242D01*
G37*
G36*
X75294142Y-43541242D02*
G01*
X75442101Y-43602529D01*
X75575255Y-43691499D01*
X75688501Y-43804745D01*
X75777471Y-43937899D01*
X75838758Y-44085858D01*
X75870000Y-44242925D01*
X75870000Y-44403075D01*
X75838758Y-44560142D01*
X75777471Y-44708101D01*
X75688501Y-44841255D01*
X75575255Y-44954501D01*
X75442101Y-45043471D01*
X75294142Y-45104758D01*
X75137075Y-45136000D01*
X74976925Y-45136000D01*
X74819858Y-45104758D01*
X74671899Y-45043471D01*
X74538745Y-44954501D01*
X74425499Y-44841255D01*
X74336529Y-44708101D01*
X74275242Y-44560142D01*
X74244000Y-44403075D01*
X74244000Y-44242925D01*
X74275242Y-44085858D01*
X74336529Y-43937899D01*
X74425499Y-43804745D01*
X74538745Y-43691499D01*
X74671899Y-43602529D01*
X74819858Y-43541242D01*
X74976925Y-43510000D01*
X75137075Y-43510000D01*
X75294142Y-43541242D01*
G37*
G36*
X72754142Y-43541242D02*
G01*
X72902101Y-43602529D01*
X73035255Y-43691499D01*
X73148501Y-43804745D01*
X73237471Y-43937899D01*
X73298758Y-44085858D01*
X73330000Y-44242925D01*
X73330000Y-44403075D01*
X73298758Y-44560142D01*
X73237471Y-44708101D01*
X73148501Y-44841255D01*
X73035255Y-44954501D01*
X72902101Y-45043471D01*
X72754142Y-45104758D01*
X72597075Y-45136000D01*
X72436925Y-45136000D01*
X72279858Y-45104758D01*
X72131899Y-45043471D01*
X71998745Y-44954501D01*
X71885499Y-44841255D01*
X71796529Y-44708101D01*
X71735242Y-44560142D01*
X71704000Y-44403075D01*
X71704000Y-44242925D01*
X71735242Y-44085858D01*
X71796529Y-43937899D01*
X71885499Y-43804745D01*
X71998745Y-43691499D01*
X72131899Y-43602529D01*
X72279858Y-43541242D01*
X72436925Y-43510000D01*
X72597075Y-43510000D01*
X72754142Y-43541242D01*
G37*
G36*
X70214142Y-43541242D02*
G01*
X70362101Y-43602529D01*
X70495255Y-43691499D01*
X70608501Y-43804745D01*
X70697471Y-43937899D01*
X70758758Y-44085858D01*
X70790000Y-44242925D01*
X70790000Y-44403075D01*
X70758758Y-44560142D01*
X70697471Y-44708101D01*
X70608501Y-44841255D01*
X70495255Y-44954501D01*
X70362101Y-45043471D01*
X70214142Y-45104758D01*
X70057075Y-45136000D01*
X69896925Y-45136000D01*
X69739858Y-45104758D01*
X69591899Y-45043471D01*
X69458745Y-44954501D01*
X69345499Y-44841255D01*
X69256529Y-44708101D01*
X69195242Y-44560142D01*
X69164000Y-44403075D01*
X69164000Y-44242925D01*
X69195242Y-44085858D01*
X69256529Y-43937899D01*
X69345499Y-43804745D01*
X69458745Y-43691499D01*
X69591899Y-43602529D01*
X69739858Y-43541242D01*
X69896925Y-43510000D01*
X70057075Y-43510000D01*
X70214142Y-43541242D01*
G37*
G36*
X67674142Y-43541242D02*
G01*
X67822101Y-43602529D01*
X67955255Y-43691499D01*
X68068501Y-43804745D01*
X68157471Y-43937899D01*
X68218758Y-44085858D01*
X68250000Y-44242925D01*
X68250000Y-44403075D01*
X68218758Y-44560142D01*
X68157471Y-44708101D01*
X68068501Y-44841255D01*
X67955255Y-44954501D01*
X67822101Y-45043471D01*
X67674142Y-45104758D01*
X67517075Y-45136000D01*
X67356925Y-45136000D01*
X67199858Y-45104758D01*
X67051899Y-45043471D01*
X66918745Y-44954501D01*
X66805499Y-44841255D01*
X66716529Y-44708101D01*
X66655242Y-44560142D01*
X66624000Y-44403075D01*
X66624000Y-44242925D01*
X66655242Y-44085858D01*
X66716529Y-43937899D01*
X66805499Y-43804745D01*
X66918745Y-43691499D01*
X67051899Y-43602529D01*
X67199858Y-43541242D01*
X67356925Y-43510000D01*
X67517075Y-43510000D01*
X67674142Y-43541242D01*
G37*
G36*
X65134142Y-43541242D02*
G01*
X65282101Y-43602529D01*
X65415255Y-43691499D01*
X65528501Y-43804745D01*
X65617471Y-43937899D01*
X65678758Y-44085858D01*
X65710000Y-44242925D01*
X65710000Y-44403075D01*
X65678758Y-44560142D01*
X65617471Y-44708101D01*
X65528501Y-44841255D01*
X65415255Y-44954501D01*
X65282101Y-45043471D01*
X65134142Y-45104758D01*
X64977075Y-45136000D01*
X64816925Y-45136000D01*
X64659858Y-45104758D01*
X64511899Y-45043471D01*
X64378745Y-44954501D01*
X64265499Y-44841255D01*
X64176529Y-44708101D01*
X64115242Y-44560142D01*
X64084000Y-44403075D01*
X64084000Y-44242925D01*
X64115242Y-44085858D01*
X64176529Y-43937899D01*
X64265499Y-43804745D01*
X64378745Y-43691499D01*
X64511899Y-43602529D01*
X64659858Y-43541242D01*
X64816925Y-43510000D01*
X64977075Y-43510000D01*
X65134142Y-43541242D01*
G37*
G36*
X62594142Y-43541242D02*
G01*
X62742101Y-43602529D01*
X62875255Y-43691499D01*
X62988501Y-43804745D01*
X63077471Y-43937899D01*
X63138758Y-44085858D01*
X63170000Y-44242925D01*
X63170000Y-44403075D01*
X63138758Y-44560142D01*
X63077471Y-44708101D01*
X62988501Y-44841255D01*
X62875255Y-44954501D01*
X62742101Y-45043471D01*
X62594142Y-45104758D01*
X62437075Y-45136000D01*
X62276925Y-45136000D01*
X62119858Y-45104758D01*
X61971899Y-45043471D01*
X61838745Y-44954501D01*
X61725499Y-44841255D01*
X61636529Y-44708101D01*
X61575242Y-44560142D01*
X61544000Y-44403075D01*
X61544000Y-44242925D01*
X61575242Y-44085858D01*
X61636529Y-43937899D01*
X61725499Y-43804745D01*
X61838745Y-43691499D01*
X61971899Y-43602529D01*
X62119858Y-43541242D01*
X62276925Y-43510000D01*
X62437075Y-43510000D01*
X62594142Y-43541242D01*
G37*
G36*
X60054142Y-43541242D02*
G01*
X60202101Y-43602529D01*
X60335255Y-43691499D01*
X60448501Y-43804745D01*
X60537471Y-43937899D01*
X60598758Y-44085858D01*
X60630000Y-44242925D01*
X60630000Y-44403075D01*
X60598758Y-44560142D01*
X60537471Y-44708101D01*
X60448501Y-44841255D01*
X60335255Y-44954501D01*
X60202101Y-45043471D01*
X60054142Y-45104758D01*
X59897075Y-45136000D01*
X59736925Y-45136000D01*
X59579858Y-45104758D01*
X59431899Y-45043471D01*
X59298745Y-44954501D01*
X59185499Y-44841255D01*
X59096529Y-44708101D01*
X59035242Y-44560142D01*
X59004000Y-44403075D01*
X59004000Y-44242925D01*
X59035242Y-44085858D01*
X59096529Y-43937899D01*
X59185499Y-43804745D01*
X59298745Y-43691499D01*
X59431899Y-43602529D01*
X59579858Y-43541242D01*
X59736925Y-43510000D01*
X59897075Y-43510000D01*
X60054142Y-43541242D01*
G37*
G36*
X93074142Y-37699242D02*
G01*
X93222101Y-37760529D01*
X93355255Y-37849499D01*
X93468501Y-37962745D01*
X93557471Y-38095899D01*
X93618758Y-38243858D01*
X93650000Y-38400925D01*
X93650000Y-38561075D01*
X93618758Y-38718142D01*
X93557471Y-38866101D01*
X93468501Y-38999255D01*
X93355255Y-39112501D01*
X93222101Y-39201471D01*
X93074142Y-39262758D01*
X92917075Y-39294000D01*
X92756925Y-39294000D01*
X92599858Y-39262758D01*
X92451899Y-39201471D01*
X92318745Y-39112501D01*
X92205499Y-38999255D01*
X92116529Y-38866101D01*
X92055242Y-38718142D01*
X92024000Y-38561075D01*
X92024000Y-38400925D01*
X92055242Y-38243858D01*
X92116529Y-38095899D01*
X92205499Y-37962745D01*
X92318745Y-37849499D01*
X92451899Y-37760529D01*
X92599858Y-37699242D01*
X92756925Y-37668000D01*
X92917075Y-37668000D01*
X93074142Y-37699242D01*
G37*
G36*
X52434142Y-37699242D02*
G01*
X52582101Y-37760529D01*
X52715255Y-37849499D01*
X52828501Y-37962745D01*
X52917471Y-38095899D01*
X52978758Y-38243858D01*
X53010000Y-38400925D01*
X53010000Y-38561075D01*
X52978758Y-38718142D01*
X52917471Y-38866101D01*
X52828501Y-38999255D01*
X52715255Y-39112501D01*
X52582101Y-39201471D01*
X52434142Y-39262758D01*
X52277075Y-39294000D01*
X52116925Y-39294000D01*
X51959858Y-39262758D01*
X51811899Y-39201471D01*
X51678745Y-39112501D01*
X51565499Y-38999255D01*
X51476529Y-38866101D01*
X51415242Y-38718142D01*
X51384000Y-38561075D01*
X51384000Y-38400925D01*
X51415242Y-38243858D01*
X51476529Y-38095899D01*
X51565499Y-37962745D01*
X51678745Y-37849499D01*
X51811899Y-37760529D01*
X51959858Y-37699242D01*
X52116925Y-37668000D01*
X52277075Y-37668000D01*
X52434142Y-37699242D01*
G37*
G36*
X90534142Y-37699242D02*
G01*
X90682101Y-37760529D01*
X90815255Y-37849499D01*
X90928501Y-37962745D01*
X91017471Y-38095899D01*
X91078758Y-38243858D01*
X91110000Y-38400925D01*
X91110000Y-38561075D01*
X91078758Y-38718142D01*
X91017471Y-38866101D01*
X90928501Y-38999255D01*
X90815255Y-39112501D01*
X90682101Y-39201471D01*
X90534142Y-39262758D01*
X90377075Y-39294000D01*
X90216925Y-39294000D01*
X90059858Y-39262758D01*
X89911899Y-39201471D01*
X89778745Y-39112501D01*
X89665499Y-38999255D01*
X89576529Y-38866101D01*
X89515242Y-38718142D01*
X89484000Y-38561075D01*
X89484000Y-38400925D01*
X89515242Y-38243858D01*
X89576529Y-38095899D01*
X89665499Y-37962745D01*
X89778745Y-37849499D01*
X89911899Y-37760529D01*
X90059858Y-37699242D01*
X90216925Y-37668000D01*
X90377075Y-37668000D01*
X90534142Y-37699242D01*
G37*
G36*
X87994142Y-37699242D02*
G01*
X88142101Y-37760529D01*
X88275255Y-37849499D01*
X88388501Y-37962745D01*
X88477471Y-38095899D01*
X88538758Y-38243858D01*
X88570000Y-38400925D01*
X88570000Y-38561075D01*
X88538758Y-38718142D01*
X88477471Y-38866101D01*
X88388501Y-38999255D01*
X88275255Y-39112501D01*
X88142101Y-39201471D01*
X87994142Y-39262758D01*
X87837075Y-39294000D01*
X87676925Y-39294000D01*
X87519858Y-39262758D01*
X87371899Y-39201471D01*
X87238745Y-39112501D01*
X87125499Y-38999255D01*
X87036529Y-38866101D01*
X86975242Y-38718142D01*
X86944000Y-38561075D01*
X86944000Y-38400925D01*
X86975242Y-38243858D01*
X87036529Y-38095899D01*
X87125499Y-37962745D01*
X87238745Y-37849499D01*
X87371899Y-37760529D01*
X87519858Y-37699242D01*
X87676925Y-37668000D01*
X87837075Y-37668000D01*
X87994142Y-37699242D01*
G37*
G36*
X85454142Y-37699242D02*
G01*
X85602101Y-37760529D01*
X85735255Y-37849499D01*
X85848501Y-37962745D01*
X85937471Y-38095899D01*
X85998758Y-38243858D01*
X86030000Y-38400925D01*
X86030000Y-38561075D01*
X85998758Y-38718142D01*
X85937471Y-38866101D01*
X85848501Y-38999255D01*
X85735255Y-39112501D01*
X85602101Y-39201471D01*
X85454142Y-39262758D01*
X85297075Y-39294000D01*
X85136925Y-39294000D01*
X84979858Y-39262758D01*
X84831899Y-39201471D01*
X84698745Y-39112501D01*
X84585499Y-38999255D01*
X84496529Y-38866101D01*
X84435242Y-38718142D01*
X84404000Y-38561075D01*
X84404000Y-38400925D01*
X84435242Y-38243858D01*
X84496529Y-38095899D01*
X84585499Y-37962745D01*
X84698745Y-37849499D01*
X84831899Y-37760529D01*
X84979858Y-37699242D01*
X85136925Y-37668000D01*
X85297075Y-37668000D01*
X85454142Y-37699242D01*
G37*
G36*
X82914142Y-37699242D02*
G01*
X83062101Y-37760529D01*
X83195255Y-37849499D01*
X83308501Y-37962745D01*
X83397471Y-38095899D01*
X83458758Y-38243858D01*
X83490000Y-38400925D01*
X83490000Y-38561075D01*
X83458758Y-38718142D01*
X83397471Y-38866101D01*
X83308501Y-38999255D01*
X83195255Y-39112501D01*
X83062101Y-39201471D01*
X82914142Y-39262758D01*
X82757075Y-39294000D01*
X82596925Y-39294000D01*
X82439858Y-39262758D01*
X82291899Y-39201471D01*
X82158745Y-39112501D01*
X82045499Y-38999255D01*
X81956529Y-38866101D01*
X81895242Y-38718142D01*
X81864000Y-38561075D01*
X81864000Y-38400925D01*
X81895242Y-38243858D01*
X81956529Y-38095899D01*
X82045499Y-37962745D01*
X82158745Y-37849499D01*
X82291899Y-37760529D01*
X82439858Y-37699242D01*
X82596925Y-37668000D01*
X82757075Y-37668000D01*
X82914142Y-37699242D01*
G37*
G36*
X80374142Y-37699242D02*
G01*
X80522101Y-37760529D01*
X80655255Y-37849499D01*
X80768501Y-37962745D01*
X80857471Y-38095899D01*
X80918758Y-38243858D01*
X80950000Y-38400925D01*
X80950000Y-38561075D01*
X80918758Y-38718142D01*
X80857471Y-38866101D01*
X80768501Y-38999255D01*
X80655255Y-39112501D01*
X80522101Y-39201471D01*
X80374142Y-39262758D01*
X80217075Y-39294000D01*
X80056925Y-39294000D01*
X79899858Y-39262758D01*
X79751899Y-39201471D01*
X79618745Y-39112501D01*
X79505499Y-38999255D01*
X79416529Y-38866101D01*
X79355242Y-38718142D01*
X79324000Y-38561075D01*
X79324000Y-38400925D01*
X79355242Y-38243858D01*
X79416529Y-38095899D01*
X79505499Y-37962745D01*
X79618745Y-37849499D01*
X79751899Y-37760529D01*
X79899858Y-37699242D01*
X80056925Y-37668000D01*
X80217075Y-37668000D01*
X80374142Y-37699242D01*
G37*
G36*
X77834142Y-37699242D02*
G01*
X77982101Y-37760529D01*
X78115255Y-37849499D01*
X78228501Y-37962745D01*
X78317471Y-38095899D01*
X78378758Y-38243858D01*
X78410000Y-38400925D01*
X78410000Y-38561075D01*
X78378758Y-38718142D01*
X78317471Y-38866101D01*
X78228501Y-38999255D01*
X78115255Y-39112501D01*
X77982101Y-39201471D01*
X77834142Y-39262758D01*
X77677075Y-39294000D01*
X77516925Y-39294000D01*
X77359858Y-39262758D01*
X77211899Y-39201471D01*
X77078745Y-39112501D01*
X76965499Y-38999255D01*
X76876529Y-38866101D01*
X76815242Y-38718142D01*
X76784000Y-38561075D01*
X76784000Y-38400925D01*
X76815242Y-38243858D01*
X76876529Y-38095899D01*
X76965499Y-37962745D01*
X77078745Y-37849499D01*
X77211899Y-37760529D01*
X77359858Y-37699242D01*
X77516925Y-37668000D01*
X77677075Y-37668000D01*
X77834142Y-37699242D01*
G37*
G36*
X75294142Y-37699242D02*
G01*
X75442101Y-37760529D01*
X75575255Y-37849499D01*
X75688501Y-37962745D01*
X75777471Y-38095899D01*
X75838758Y-38243858D01*
X75870000Y-38400925D01*
X75870000Y-38561075D01*
X75838758Y-38718142D01*
X75777471Y-38866101D01*
X75688501Y-38999255D01*
X75575255Y-39112501D01*
X75442101Y-39201471D01*
X75294142Y-39262758D01*
X75137075Y-39294000D01*
X74976925Y-39294000D01*
X74819858Y-39262758D01*
X74671899Y-39201471D01*
X74538745Y-39112501D01*
X74425499Y-38999255D01*
X74336529Y-38866101D01*
X74275242Y-38718142D01*
X74244000Y-38561075D01*
X74244000Y-38400925D01*
X74275242Y-38243858D01*
X74336529Y-38095899D01*
X74425499Y-37962745D01*
X74538745Y-37849499D01*
X74671899Y-37760529D01*
X74819858Y-37699242D01*
X74976925Y-37668000D01*
X75137075Y-37668000D01*
X75294142Y-37699242D01*
G37*
G36*
X72754142Y-37699242D02*
G01*
X72902101Y-37760529D01*
X73035255Y-37849499D01*
X73148501Y-37962745D01*
X73237471Y-38095899D01*
X73298758Y-38243858D01*
X73330000Y-38400925D01*
X73330000Y-38561075D01*
X73298758Y-38718142D01*
X73237471Y-38866101D01*
X73148501Y-38999255D01*
X73035255Y-39112501D01*
X72902101Y-39201471D01*
X72754142Y-39262758D01*
X72597075Y-39294000D01*
X72436925Y-39294000D01*
X72279858Y-39262758D01*
X72131899Y-39201471D01*
X71998745Y-39112501D01*
X71885499Y-38999255D01*
X71796529Y-38866101D01*
X71735242Y-38718142D01*
X71704000Y-38561075D01*
X71704000Y-38400925D01*
X71735242Y-38243858D01*
X71796529Y-38095899D01*
X71885499Y-37962745D01*
X71998745Y-37849499D01*
X72131899Y-37760529D01*
X72279858Y-37699242D01*
X72436925Y-37668000D01*
X72597075Y-37668000D01*
X72754142Y-37699242D01*
G37*
G36*
X70214142Y-37699242D02*
G01*
X70362101Y-37760529D01*
X70495255Y-37849499D01*
X70608501Y-37962745D01*
X70697471Y-38095899D01*
X70758758Y-38243858D01*
X70790000Y-38400925D01*
X70790000Y-38561075D01*
X70758758Y-38718142D01*
X70697471Y-38866101D01*
X70608501Y-38999255D01*
X70495255Y-39112501D01*
X70362101Y-39201471D01*
X70214142Y-39262758D01*
X70057075Y-39294000D01*
X69896925Y-39294000D01*
X69739858Y-39262758D01*
X69591899Y-39201471D01*
X69458745Y-39112501D01*
X69345499Y-38999255D01*
X69256529Y-38866101D01*
X69195242Y-38718142D01*
X69164000Y-38561075D01*
X69164000Y-38400925D01*
X69195242Y-38243858D01*
X69256529Y-38095899D01*
X69345499Y-37962745D01*
X69458745Y-37849499D01*
X69591899Y-37760529D01*
X69739858Y-37699242D01*
X69896925Y-37668000D01*
X70057075Y-37668000D01*
X70214142Y-37699242D01*
G37*
G36*
X67674142Y-37699242D02*
G01*
X67822101Y-37760529D01*
X67955255Y-37849499D01*
X68068501Y-37962745D01*
X68157471Y-38095899D01*
X68218758Y-38243858D01*
X68250000Y-38400925D01*
X68250000Y-38561075D01*
X68218758Y-38718142D01*
X68157471Y-38866101D01*
X68068501Y-38999255D01*
X67955255Y-39112501D01*
X67822101Y-39201471D01*
X67674142Y-39262758D01*
X67517075Y-39294000D01*
X67356925Y-39294000D01*
X67199858Y-39262758D01*
X67051899Y-39201471D01*
X66918745Y-39112501D01*
X66805499Y-38999255D01*
X66716529Y-38866101D01*
X66655242Y-38718142D01*
X66624000Y-38561075D01*
X66624000Y-38400925D01*
X66655242Y-38243858D01*
X66716529Y-38095899D01*
X66805499Y-37962745D01*
X66918745Y-37849499D01*
X67051899Y-37760529D01*
X67199858Y-37699242D01*
X67356925Y-37668000D01*
X67517075Y-37668000D01*
X67674142Y-37699242D01*
G37*
G36*
X65134142Y-37699242D02*
G01*
X65282101Y-37760529D01*
X65415255Y-37849499D01*
X65528501Y-37962745D01*
X65617471Y-38095899D01*
X65678758Y-38243858D01*
X65710000Y-38400925D01*
X65710000Y-38561075D01*
X65678758Y-38718142D01*
X65617471Y-38866101D01*
X65528501Y-38999255D01*
X65415255Y-39112501D01*
X65282101Y-39201471D01*
X65134142Y-39262758D01*
X64977075Y-39294000D01*
X64816925Y-39294000D01*
X64659858Y-39262758D01*
X64511899Y-39201471D01*
X64378745Y-39112501D01*
X64265499Y-38999255D01*
X64176529Y-38866101D01*
X64115242Y-38718142D01*
X64084000Y-38561075D01*
X64084000Y-38400925D01*
X64115242Y-38243858D01*
X64176529Y-38095899D01*
X64265499Y-37962745D01*
X64378745Y-37849499D01*
X64511899Y-37760529D01*
X64659858Y-37699242D01*
X64816925Y-37668000D01*
X64977075Y-37668000D01*
X65134142Y-37699242D01*
G37*
G36*
X60054142Y-37699242D02*
G01*
X60202101Y-37760529D01*
X60335255Y-37849499D01*
X60448501Y-37962745D01*
X60537471Y-38095899D01*
X60598758Y-38243858D01*
X60630000Y-38400925D01*
X60630000Y-38561075D01*
X60598758Y-38718142D01*
X60537471Y-38866101D01*
X60448501Y-38999255D01*
X60335255Y-39112501D01*
X60202101Y-39201471D01*
X60054142Y-39262758D01*
X59897075Y-39294000D01*
X59736925Y-39294000D01*
X59579858Y-39262758D01*
X59431899Y-39201471D01*
X59298745Y-39112501D01*
X59185499Y-38999255D01*
X59096529Y-38866101D01*
X59035242Y-38718142D01*
X59004000Y-38561075D01*
X59004000Y-38400925D01*
X59035242Y-38243858D01*
X59096529Y-38095899D01*
X59185499Y-37962745D01*
X59298745Y-37849499D01*
X59431899Y-37760529D01*
X59579858Y-37699242D01*
X59736925Y-37668000D01*
X59897075Y-37668000D01*
X60054142Y-37699242D01*
G37*
G36*
X57514142Y-37699242D02*
G01*
X57662101Y-37760529D01*
X57795255Y-37849499D01*
X57908501Y-37962745D01*
X57997471Y-38095899D01*
X58058758Y-38243858D01*
X58090000Y-38400925D01*
X58090000Y-38561075D01*
X58058758Y-38718142D01*
X57997471Y-38866101D01*
X57908501Y-38999255D01*
X57795255Y-39112501D01*
X57662101Y-39201471D01*
X57514142Y-39262758D01*
X57357075Y-39294000D01*
X57196925Y-39294000D01*
X57039858Y-39262758D01*
X56891899Y-39201471D01*
X56758745Y-39112501D01*
X56645499Y-38999255D01*
X56556529Y-38866101D01*
X56495242Y-38718142D01*
X56464000Y-38561075D01*
X56464000Y-38400925D01*
X56495242Y-38243858D01*
X56556529Y-38095899D01*
X56645499Y-37962745D01*
X56758745Y-37849499D01*
X56891899Y-37760529D01*
X57039858Y-37699242D01*
X57196925Y-37668000D01*
X57357075Y-37668000D01*
X57514142Y-37699242D01*
G37*
G36*
X54974142Y-37699242D02*
G01*
X55122101Y-37760529D01*
X55255255Y-37849499D01*
X55368501Y-37962745D01*
X55457471Y-38095899D01*
X55518758Y-38243858D01*
X55550000Y-38400925D01*
X55550000Y-38561075D01*
X55518758Y-38718142D01*
X55457471Y-38866101D01*
X55368501Y-38999255D01*
X55255255Y-39112501D01*
X55122101Y-39201471D01*
X54974142Y-39262758D01*
X54817075Y-39294000D01*
X54656925Y-39294000D01*
X54499858Y-39262758D01*
X54351899Y-39201471D01*
X54218745Y-39112501D01*
X54105499Y-38999255D01*
X54016529Y-38866101D01*
X53955242Y-38718142D01*
X53924000Y-38561075D01*
X53924000Y-38400925D01*
X53955242Y-38243858D01*
X54016529Y-38095899D01*
X54105499Y-37962745D01*
X54218745Y-37849499D01*
X54351899Y-37760529D01*
X54499858Y-37699242D01*
X54656925Y-37668000D01*
X54817075Y-37668000D01*
X54974142Y-37699242D01*
G37*
G36*
X62594142Y-37699242D02*
G01*
X62742101Y-37760529D01*
X62875255Y-37849499D01*
X62988501Y-37962745D01*
X63077471Y-38095899D01*
X63138758Y-38243858D01*
X63170000Y-38400925D01*
X63170000Y-38561075D01*
X63138758Y-38718142D01*
X63077471Y-38866101D01*
X62988501Y-38999255D01*
X62875255Y-39112501D01*
X62742101Y-39201471D01*
X62594142Y-39262758D01*
X62437075Y-39294000D01*
X62276925Y-39294000D01*
X62119858Y-39262758D01*
X61971899Y-39201471D01*
X61838745Y-39112501D01*
X61725499Y-38999255D01*
X61636529Y-38866101D01*
X61575242Y-38718142D01*
X61544000Y-38561075D01*
X61544000Y-38400925D01*
X61575242Y-38243858D01*
X61636529Y-38095899D01*
X61725499Y-37962745D01*
X61838745Y-37849499D01*
X61971899Y-37760529D01*
X62119858Y-37699242D01*
X62276925Y-37668000D01*
X62437075Y-37668000D01*
X62594142Y-37699242D01*
G37*
G36*
X93650000Y-36754000D02*
G01*
X92024000Y-36754000D01*
X92024000Y-35128000D01*
X93650000Y-35128000D01*
X93650000Y-36754000D01*
G37*
G36*
X52434142Y-35159242D02*
G01*
X52582101Y-35220529D01*
X52715255Y-35309499D01*
X52828501Y-35422745D01*
X52917471Y-35555899D01*
X52978758Y-35703858D01*
X53010000Y-35860925D01*
X53010000Y-36021075D01*
X52978758Y-36178142D01*
X52917471Y-36326101D01*
X52828501Y-36459255D01*
X52715255Y-36572501D01*
X52582101Y-36661471D01*
X52434142Y-36722758D01*
X52277075Y-36754000D01*
X52116925Y-36754000D01*
X51959858Y-36722758D01*
X51811899Y-36661471D01*
X51678745Y-36572501D01*
X51565499Y-36459255D01*
X51476529Y-36326101D01*
X51415242Y-36178142D01*
X51384000Y-36021075D01*
X51384000Y-35860925D01*
X51415242Y-35703858D01*
X51476529Y-35555899D01*
X51565499Y-35422745D01*
X51678745Y-35309499D01*
X51811899Y-35220529D01*
X51959858Y-35159242D01*
X52116925Y-35128000D01*
X52277075Y-35128000D01*
X52434142Y-35159242D01*
G37*
G36*
X90534142Y-35159242D02*
G01*
X90682101Y-35220529D01*
X90815255Y-35309499D01*
X90928501Y-35422745D01*
X91017471Y-35555899D01*
X91078758Y-35703858D01*
X91110000Y-35860925D01*
X91110000Y-36021075D01*
X91078758Y-36178142D01*
X91017471Y-36326101D01*
X90928501Y-36459255D01*
X90815255Y-36572501D01*
X90682101Y-36661471D01*
X90534142Y-36722758D01*
X90377075Y-36754000D01*
X90216925Y-36754000D01*
X90059858Y-36722758D01*
X89911899Y-36661471D01*
X89778745Y-36572501D01*
X89665499Y-36459255D01*
X89576529Y-36326101D01*
X89515242Y-36178142D01*
X89484000Y-36021075D01*
X89484000Y-35860925D01*
X89515242Y-35703858D01*
X89576529Y-35555899D01*
X89665499Y-35422745D01*
X89778745Y-35309499D01*
X89911899Y-35220529D01*
X90059858Y-35159242D01*
X90216925Y-35128000D01*
X90377075Y-35128000D01*
X90534142Y-35159242D01*
G37*
G36*
X54974142Y-35159242D02*
G01*
X55122101Y-35220529D01*
X55255255Y-35309499D01*
X55368501Y-35422745D01*
X55457471Y-35555899D01*
X55518758Y-35703858D01*
X55550000Y-35860925D01*
X55550000Y-36021075D01*
X55518758Y-36178142D01*
X55457471Y-36326101D01*
X55368501Y-36459255D01*
X55255255Y-36572501D01*
X55122101Y-36661471D01*
X54974142Y-36722758D01*
X54817075Y-36754000D01*
X54656925Y-36754000D01*
X54499858Y-36722758D01*
X54351899Y-36661471D01*
X54218745Y-36572501D01*
X54105499Y-36459255D01*
X54016529Y-36326101D01*
X53955242Y-36178142D01*
X53924000Y-36021075D01*
X53924000Y-35860925D01*
X53955242Y-35703858D01*
X54016529Y-35555899D01*
X54105499Y-35422745D01*
X54218745Y-35309499D01*
X54351899Y-35220529D01*
X54499858Y-35159242D01*
X54656925Y-35128000D01*
X54817075Y-35128000D01*
X54974142Y-35159242D01*
G37*
G36*
X87994142Y-35159242D02*
G01*
X88142101Y-35220529D01*
X88275255Y-35309499D01*
X88388501Y-35422745D01*
X88477471Y-35555899D01*
X88538758Y-35703858D01*
X88570000Y-35860925D01*
X88570000Y-36021075D01*
X88538758Y-36178142D01*
X88477471Y-36326101D01*
X88388501Y-36459255D01*
X88275255Y-36572501D01*
X88142101Y-36661471D01*
X87994142Y-36722758D01*
X87837075Y-36754000D01*
X87676925Y-36754000D01*
X87519858Y-36722758D01*
X87371899Y-36661471D01*
X87238745Y-36572501D01*
X87125499Y-36459255D01*
X87036529Y-36326101D01*
X86975242Y-36178142D01*
X86944000Y-36021075D01*
X86944000Y-35860925D01*
X86975242Y-35703858D01*
X87036529Y-35555899D01*
X87125499Y-35422745D01*
X87238745Y-35309499D01*
X87371899Y-35220529D01*
X87519858Y-35159242D01*
X87676925Y-35128000D01*
X87837075Y-35128000D01*
X87994142Y-35159242D01*
G37*
G36*
X57514142Y-35159242D02*
G01*
X57662101Y-35220529D01*
X57795255Y-35309499D01*
X57908501Y-35422745D01*
X57997471Y-35555899D01*
X58058758Y-35703858D01*
X58090000Y-35860925D01*
X58090000Y-36021075D01*
X58058758Y-36178142D01*
X57997471Y-36326101D01*
X57908501Y-36459255D01*
X57795255Y-36572501D01*
X57662101Y-36661471D01*
X57514142Y-36722758D01*
X57357075Y-36754000D01*
X57196925Y-36754000D01*
X57039858Y-36722758D01*
X56891899Y-36661471D01*
X56758745Y-36572501D01*
X56645499Y-36459255D01*
X56556529Y-36326101D01*
X56495242Y-36178142D01*
X56464000Y-36021075D01*
X56464000Y-35860925D01*
X56495242Y-35703858D01*
X56556529Y-35555899D01*
X56645499Y-35422745D01*
X56758745Y-35309499D01*
X56891899Y-35220529D01*
X57039858Y-35159242D01*
X57196925Y-35128000D01*
X57357075Y-35128000D01*
X57514142Y-35159242D01*
G37*
G36*
X85454142Y-35159242D02*
G01*
X85602101Y-35220529D01*
X85735255Y-35309499D01*
X85848501Y-35422745D01*
X85937471Y-35555899D01*
X85998758Y-35703858D01*
X86030000Y-35860925D01*
X86030000Y-36021075D01*
X85998758Y-36178142D01*
X85937471Y-36326101D01*
X85848501Y-36459255D01*
X85735255Y-36572501D01*
X85602101Y-36661471D01*
X85454142Y-36722758D01*
X85297075Y-36754000D01*
X85136925Y-36754000D01*
X84979858Y-36722758D01*
X84831899Y-36661471D01*
X84698745Y-36572501D01*
X84585499Y-36459255D01*
X84496529Y-36326101D01*
X84435242Y-36178142D01*
X84404000Y-36021075D01*
X84404000Y-35860925D01*
X84435242Y-35703858D01*
X84496529Y-35555899D01*
X84585499Y-35422745D01*
X84698745Y-35309499D01*
X84831899Y-35220529D01*
X84979858Y-35159242D01*
X85136925Y-35128000D01*
X85297075Y-35128000D01*
X85454142Y-35159242D01*
G37*
G36*
X60054142Y-35159242D02*
G01*
X60202101Y-35220529D01*
X60335255Y-35309499D01*
X60448501Y-35422745D01*
X60537471Y-35555899D01*
X60598758Y-35703858D01*
X60630000Y-35860925D01*
X60630000Y-36021075D01*
X60598758Y-36178142D01*
X60537471Y-36326101D01*
X60448501Y-36459255D01*
X60335255Y-36572501D01*
X60202101Y-36661471D01*
X60054142Y-36722758D01*
X59897075Y-36754000D01*
X59736925Y-36754000D01*
X59579858Y-36722758D01*
X59431899Y-36661471D01*
X59298745Y-36572501D01*
X59185499Y-36459255D01*
X59096529Y-36326101D01*
X59035242Y-36178142D01*
X59004000Y-36021075D01*
X59004000Y-35860925D01*
X59035242Y-35703858D01*
X59096529Y-35555899D01*
X59185499Y-35422745D01*
X59298745Y-35309499D01*
X59431899Y-35220529D01*
X59579858Y-35159242D01*
X59736925Y-35128000D01*
X59897075Y-35128000D01*
X60054142Y-35159242D01*
G37*
G36*
X82914142Y-35159242D02*
G01*
X83062101Y-35220529D01*
X83195255Y-35309499D01*
X83308501Y-35422745D01*
X83397471Y-35555899D01*
X83458758Y-35703858D01*
X83490000Y-35860925D01*
X83490000Y-36021075D01*
X83458758Y-36178142D01*
X83397471Y-36326101D01*
X83308501Y-36459255D01*
X83195255Y-36572501D01*
X83062101Y-36661471D01*
X82914142Y-36722758D01*
X82757075Y-36754000D01*
X82596925Y-36754000D01*
X82439858Y-36722758D01*
X82291899Y-36661471D01*
X82158745Y-36572501D01*
X82045499Y-36459255D01*
X81956529Y-36326101D01*
X81895242Y-36178142D01*
X81864000Y-36021075D01*
X81864000Y-35860925D01*
X81895242Y-35703858D01*
X81956529Y-35555899D01*
X82045499Y-35422745D01*
X82158745Y-35309499D01*
X82291899Y-35220529D01*
X82439858Y-35159242D01*
X82596925Y-35128000D01*
X82757075Y-35128000D01*
X82914142Y-35159242D01*
G37*
G36*
X65134142Y-35159242D02*
G01*
X65282101Y-35220529D01*
X65415255Y-35309499D01*
X65528501Y-35422745D01*
X65617471Y-35555899D01*
X65678758Y-35703858D01*
X65710000Y-35860925D01*
X65710000Y-36021075D01*
X65678758Y-36178142D01*
X65617471Y-36326101D01*
X65528501Y-36459255D01*
X65415255Y-36572501D01*
X65282101Y-36661471D01*
X65134142Y-36722758D01*
X64977075Y-36754000D01*
X64816925Y-36754000D01*
X64659858Y-36722758D01*
X64511899Y-36661471D01*
X64378745Y-36572501D01*
X64265499Y-36459255D01*
X64176529Y-36326101D01*
X64115242Y-36178142D01*
X64084000Y-36021075D01*
X64084000Y-35860925D01*
X64115242Y-35703858D01*
X64176529Y-35555899D01*
X64265499Y-35422745D01*
X64378745Y-35309499D01*
X64511899Y-35220529D01*
X64659858Y-35159242D01*
X64816925Y-35128000D01*
X64977075Y-35128000D01*
X65134142Y-35159242D01*
G37*
G36*
X80374142Y-35159242D02*
G01*
X80522101Y-35220529D01*
X80655255Y-35309499D01*
X80768501Y-35422745D01*
X80857471Y-35555899D01*
X80918758Y-35703858D01*
X80950000Y-35860925D01*
X80950000Y-36021075D01*
X80918758Y-36178142D01*
X80857471Y-36326101D01*
X80768501Y-36459255D01*
X80655255Y-36572501D01*
X80522101Y-36661471D01*
X80374142Y-36722758D01*
X80217075Y-36754000D01*
X80056925Y-36754000D01*
X79899858Y-36722758D01*
X79751899Y-36661471D01*
X79618745Y-36572501D01*
X79505499Y-36459255D01*
X79416529Y-36326101D01*
X79355242Y-36178142D01*
X79324000Y-36021075D01*
X79324000Y-35860925D01*
X79355242Y-35703858D01*
X79416529Y-35555899D01*
X79505499Y-35422745D01*
X79618745Y-35309499D01*
X79751899Y-35220529D01*
X79899858Y-35159242D01*
X80056925Y-35128000D01*
X80217075Y-35128000D01*
X80374142Y-35159242D01*
G37*
G36*
X67674142Y-35159242D02*
G01*
X67822101Y-35220529D01*
X67955255Y-35309499D01*
X68068501Y-35422745D01*
X68157471Y-35555899D01*
X68218758Y-35703858D01*
X68250000Y-35860925D01*
X68250000Y-36021075D01*
X68218758Y-36178142D01*
X68157471Y-36326101D01*
X68068501Y-36459255D01*
X67955255Y-36572501D01*
X67822101Y-36661471D01*
X67674142Y-36722758D01*
X67517075Y-36754000D01*
X67356925Y-36754000D01*
X67199858Y-36722758D01*
X67051899Y-36661471D01*
X66918745Y-36572501D01*
X66805499Y-36459255D01*
X66716529Y-36326101D01*
X66655242Y-36178142D01*
X66624000Y-36021075D01*
X66624000Y-35860925D01*
X66655242Y-35703858D01*
X66716529Y-35555899D01*
X66805499Y-35422745D01*
X66918745Y-35309499D01*
X67051899Y-35220529D01*
X67199858Y-35159242D01*
X67356925Y-35128000D01*
X67517075Y-35128000D01*
X67674142Y-35159242D01*
G37*
G36*
X77834142Y-35159242D02*
G01*
X77982101Y-35220529D01*
X78115255Y-35309499D01*
X78228501Y-35422745D01*
X78317471Y-35555899D01*
X78378758Y-35703858D01*
X78410000Y-35860925D01*
X78410000Y-36021075D01*
X78378758Y-36178142D01*
X78317471Y-36326101D01*
X78228501Y-36459255D01*
X78115255Y-36572501D01*
X77982101Y-36661471D01*
X77834142Y-36722758D01*
X77677075Y-36754000D01*
X77516925Y-36754000D01*
X77359858Y-36722758D01*
X77211899Y-36661471D01*
X77078745Y-36572501D01*
X76965499Y-36459255D01*
X76876529Y-36326101D01*
X76815242Y-36178142D01*
X76784000Y-36021075D01*
X76784000Y-35860925D01*
X76815242Y-35703858D01*
X76876529Y-35555899D01*
X76965499Y-35422745D01*
X77078745Y-35309499D01*
X77211899Y-35220529D01*
X77359858Y-35159242D01*
X77516925Y-35128000D01*
X77677075Y-35128000D01*
X77834142Y-35159242D01*
G37*
G36*
X75294142Y-35159242D02*
G01*
X75442101Y-35220529D01*
X75575255Y-35309499D01*
X75688501Y-35422745D01*
X75777471Y-35555899D01*
X75838758Y-35703858D01*
X75870000Y-35860925D01*
X75870000Y-36021075D01*
X75838758Y-36178142D01*
X75777471Y-36326101D01*
X75688501Y-36459255D01*
X75575255Y-36572501D01*
X75442101Y-36661471D01*
X75294142Y-36722758D01*
X75137075Y-36754000D01*
X74976925Y-36754000D01*
X74819858Y-36722758D01*
X74671899Y-36661471D01*
X74538745Y-36572501D01*
X74425499Y-36459255D01*
X74336529Y-36326101D01*
X74275242Y-36178142D01*
X74244000Y-36021075D01*
X74244000Y-35860925D01*
X74275242Y-35703858D01*
X74336529Y-35555899D01*
X74425499Y-35422745D01*
X74538745Y-35309499D01*
X74671899Y-35220529D01*
X74819858Y-35159242D01*
X74976925Y-35128000D01*
X75137075Y-35128000D01*
X75294142Y-35159242D01*
G37*
G36*
X72754142Y-35159242D02*
G01*
X72902101Y-35220529D01*
X73035255Y-35309499D01*
X73148501Y-35422745D01*
X73237471Y-35555899D01*
X73298758Y-35703858D01*
X73330000Y-35860925D01*
X73330000Y-36021075D01*
X73298758Y-36178142D01*
X73237471Y-36326101D01*
X73148501Y-36459255D01*
X73035255Y-36572501D01*
X72902101Y-36661471D01*
X72754142Y-36722758D01*
X72597075Y-36754000D01*
X72436925Y-36754000D01*
X72279858Y-36722758D01*
X72131899Y-36661471D01*
X71998745Y-36572501D01*
X71885499Y-36459255D01*
X71796529Y-36326101D01*
X71735242Y-36178142D01*
X71704000Y-36021075D01*
X71704000Y-35860925D01*
X71735242Y-35703858D01*
X71796529Y-35555899D01*
X71885499Y-35422745D01*
X71998745Y-35309499D01*
X72131899Y-35220529D01*
X72279858Y-35159242D01*
X72436925Y-35128000D01*
X72597075Y-35128000D01*
X72754142Y-35159242D01*
G37*
G36*
X70214142Y-35159242D02*
G01*
X70362101Y-35220529D01*
X70495255Y-35309499D01*
X70608501Y-35422745D01*
X70697471Y-35555899D01*
X70758758Y-35703858D01*
X70790000Y-35860925D01*
X70790000Y-36021075D01*
X70758758Y-36178142D01*
X70697471Y-36326101D01*
X70608501Y-36459255D01*
X70495255Y-36572501D01*
X70362101Y-36661471D01*
X70214142Y-36722758D01*
X70057075Y-36754000D01*
X69896925Y-36754000D01*
X69739858Y-36722758D01*
X69591899Y-36661471D01*
X69458745Y-36572501D01*
X69345499Y-36459255D01*
X69256529Y-36326101D01*
X69195242Y-36178142D01*
X69164000Y-36021075D01*
X69164000Y-35860925D01*
X69195242Y-35703858D01*
X69256529Y-35555899D01*
X69345499Y-35422745D01*
X69458745Y-35309499D01*
X69591899Y-35220529D01*
X69739858Y-35159242D01*
X69896925Y-35128000D01*
X70057075Y-35128000D01*
X70214142Y-35159242D01*
G37*
G36*
X62594142Y-35159242D02*
G01*
X62742101Y-35220529D01*
X62875255Y-35309499D01*
X62988501Y-35422745D01*
X63077471Y-35555899D01*
X63138758Y-35703858D01*
X63170000Y-35860925D01*
X63170000Y-36021075D01*
X63138758Y-36178142D01*
X63077471Y-36326101D01*
X62988501Y-36459255D01*
X62875255Y-36572501D01*
X62742101Y-36661471D01*
X62594142Y-36722758D01*
X62437075Y-36754000D01*
X62276925Y-36754000D01*
X62119858Y-36722758D01*
X61971899Y-36661471D01*
X61838745Y-36572501D01*
X61725499Y-36459255D01*
X61636529Y-36326101D01*
X61575242Y-36178142D01*
X61544000Y-36021075D01*
X61544000Y-35860925D01*
X61575242Y-35703858D01*
X61636529Y-35555899D01*
X61725499Y-35422745D01*
X61838745Y-35309499D01*
X61971899Y-35220529D01*
X62119858Y-35159242D01*
X62276925Y-35128000D01*
X62437075Y-35128000D01*
X62594142Y-35159242D01*
G37*
M02*
