G04 #@! TF.GenerationSoftware,KiCad,Pcbnew,(5.1.5-0-10_14)*
G04 #@! TF.CreationDate,2020-03-21T14:00:30+11:00*
G04 #@! TF.ProjectId,Internal 5.25 Adapter,496e7465-726e-4616-9c20-352e32352041,rev?*
G04 #@! TF.SameCoordinates,Original*
G04 #@! TF.FileFunction,Copper,L2,Bot*
G04 #@! TF.FilePolarity,Positive*
%FSLAX46Y46*%
G04 Gerber Fmt 4.6, Leading zero omitted, Abs format (unit mm)*
G04 Created by KiCad (PCBNEW (5.1.5-0-10_14)) date 2020-03-21 14:00:30*
%MOMM*%
%LPD*%
G04 APERTURE LIST*
%ADD10C,1.524000*%
%ADD11R,1.524000X1.524000*%
%ADD12C,0.250000*%
%ADD13C,0.254000*%
G04 APERTURE END LIST*
D10*
X57277000Y-44323000D03*
X59817000Y-44323000D03*
X62357000Y-44323000D03*
X64897000Y-44323000D03*
X67437000Y-44323000D03*
D11*
X92837000Y-44323000D03*
D10*
X90297000Y-44323000D03*
X87757000Y-44323000D03*
X85217000Y-44323000D03*
X82677000Y-44323000D03*
X80137000Y-44323000D03*
X77597000Y-44323000D03*
X75057000Y-44323000D03*
X72517000Y-44323000D03*
X69977000Y-44323000D03*
X57277000Y-49403000D03*
X59817000Y-49403000D03*
X62357000Y-49403000D03*
X64897000Y-49403000D03*
X67437000Y-49403000D03*
X69977000Y-49403000D03*
X72517000Y-49403000D03*
X75057000Y-49403000D03*
X77597000Y-49403000D03*
X80137000Y-49403000D03*
X82677000Y-49403000D03*
X85217000Y-49403000D03*
X87757000Y-49403000D03*
X90297000Y-49403000D03*
X92837000Y-49403000D03*
X54737000Y-44323000D03*
X54737000Y-49403000D03*
X52197000Y-49403000D03*
X52197000Y-44323000D03*
X52197000Y-38481000D03*
X52197000Y-35941000D03*
X54737000Y-38481000D03*
X54737000Y-35941000D03*
X57277000Y-38481000D03*
X57277000Y-35941000D03*
X59817000Y-38481000D03*
X59817000Y-35941000D03*
X64897000Y-38481000D03*
X64897000Y-35941000D03*
X67437000Y-38481000D03*
X67437000Y-35941000D03*
D11*
X92837000Y-35941000D03*
D10*
X90297000Y-35941000D03*
X87757000Y-35941000D03*
X85217000Y-35941000D03*
X82677000Y-35941000D03*
X80137000Y-35941000D03*
X77597000Y-35941000D03*
X75057000Y-35941000D03*
X72517000Y-35941000D03*
X69977000Y-35941000D03*
X69977000Y-38481000D03*
X72517000Y-38481000D03*
X75057000Y-38481000D03*
X77597000Y-38481000D03*
X80137000Y-38481000D03*
X82677000Y-38481000D03*
X85217000Y-38481000D03*
X87757000Y-38481000D03*
X90297000Y-38481000D03*
X92837000Y-38481000D03*
X62357000Y-35941000D03*
X62357000Y-38481000D03*
D12*
X53975001Y-48641001D02*
X54737000Y-49403000D01*
X53649999Y-48315999D02*
X53975001Y-48641001D01*
X53649999Y-39568001D02*
X53649999Y-48315999D01*
X54737000Y-38481000D02*
X53649999Y-39568001D01*
X56189999Y-48315999D02*
X56515001Y-48641001D01*
X56515001Y-48641001D02*
X57277000Y-49403000D01*
X56189999Y-39568001D02*
X56189999Y-48315999D01*
X57277000Y-38481000D02*
X56189999Y-39568001D01*
X58364001Y-47950001D02*
X59055001Y-48641001D01*
X58364001Y-39933999D02*
X58364001Y-47950001D01*
X59055001Y-48641001D02*
X59817000Y-49403000D01*
X59817000Y-38481000D02*
X58364001Y-39933999D01*
X61269999Y-48315999D02*
X61595001Y-48641001D01*
X61595001Y-48641001D02*
X62357000Y-49403000D01*
X61269999Y-39568001D02*
X61269999Y-48315999D01*
X62357000Y-38481000D02*
X61269999Y-39568001D01*
X64135001Y-48641001D02*
X64897000Y-49403000D01*
X63444001Y-47950001D02*
X64135001Y-48641001D01*
X63444001Y-39933999D02*
X63444001Y-47950001D01*
X64897000Y-38481000D02*
X63444001Y-39933999D01*
X66675001Y-48641001D02*
X67437000Y-49403000D01*
X65984001Y-47950001D02*
X66675001Y-48641001D01*
X65984001Y-39933999D02*
X65984001Y-47950001D01*
X67437000Y-38481000D02*
X65984001Y-39933999D01*
X68524001Y-47950001D02*
X69215001Y-48641001D01*
X68524001Y-39933999D02*
X68524001Y-47950001D01*
X69215001Y-48641001D02*
X69977000Y-49403000D01*
X69977000Y-38481000D02*
X68524001Y-39933999D01*
X71064001Y-47950001D02*
X71755001Y-48641001D01*
X71064001Y-39933999D02*
X71064001Y-47950001D01*
X71755001Y-48641001D02*
X72517000Y-49403000D01*
X72517000Y-38481000D02*
X71064001Y-39933999D01*
X74295001Y-48641001D02*
X75057000Y-49403000D01*
X73604001Y-47950001D02*
X74295001Y-48641001D01*
X73604001Y-39933999D02*
X73604001Y-47950001D01*
X75057000Y-38481000D02*
X73604001Y-39933999D01*
X76835001Y-48641001D02*
X77597000Y-49403000D01*
X76144001Y-47950001D02*
X76835001Y-48641001D01*
X76144001Y-39933999D02*
X76144001Y-47950001D01*
X77597000Y-38481000D02*
X76144001Y-39933999D01*
X81915001Y-48641001D02*
X82677000Y-49403000D01*
X81589999Y-48315999D02*
X81915001Y-48641001D01*
X81589999Y-39568001D02*
X81589999Y-48315999D01*
X82677000Y-38481000D02*
X81589999Y-39568001D01*
X84455001Y-48641001D02*
X85217000Y-49403000D01*
X84129999Y-48315999D02*
X84455001Y-48641001D01*
X84129999Y-39568001D02*
X84129999Y-48315999D01*
X85217000Y-38481000D02*
X84129999Y-39568001D01*
X79375001Y-48641001D02*
X80137000Y-49403000D01*
X78684001Y-47950001D02*
X79375001Y-48641001D01*
X78684001Y-39933999D02*
X78684001Y-47950001D01*
X80137000Y-38481000D02*
X78684001Y-39933999D01*
X86995001Y-48641001D02*
X87757000Y-49403000D01*
X86304001Y-47950001D02*
X86995001Y-48641001D01*
X86304001Y-39933999D02*
X86304001Y-47950001D01*
X87757000Y-38481000D02*
X86304001Y-39933999D01*
D13*
G36*
X97511001Y-51283000D02*
G01*
X47523000Y-51283000D01*
X47523000Y-44395017D01*
X50795090Y-44395017D01*
X50836078Y-44667133D01*
X50929364Y-44926023D01*
X50991344Y-45041980D01*
X51231435Y-45108960D01*
X52017395Y-44323000D01*
X51231435Y-43537040D01*
X50991344Y-43604020D01*
X50874244Y-43853048D01*
X50807977Y-44120135D01*
X50795090Y-44395017D01*
X47523000Y-44395017D01*
X47523000Y-35803408D01*
X50800000Y-35803408D01*
X50800000Y-36078592D01*
X50853686Y-36348490D01*
X50958995Y-36602727D01*
X51111880Y-36831535D01*
X51306465Y-37026120D01*
X51535273Y-37179005D01*
X51612515Y-37211000D01*
X51535273Y-37242995D01*
X51306465Y-37395880D01*
X51111880Y-37590465D01*
X50958995Y-37819273D01*
X50853686Y-38073510D01*
X50800000Y-38343408D01*
X50800000Y-38618592D01*
X50853686Y-38888490D01*
X50958995Y-39142727D01*
X51111880Y-39371535D01*
X51306465Y-39566120D01*
X51535273Y-39719005D01*
X51789510Y-39824314D01*
X52059408Y-39878000D01*
X52334592Y-39878000D01*
X52604490Y-39824314D01*
X52858727Y-39719005D01*
X52889999Y-39698110D01*
X52889999Y-43105127D01*
X52666952Y-43000244D01*
X52399865Y-42933977D01*
X52124983Y-42921090D01*
X51852867Y-42962078D01*
X51593977Y-43055364D01*
X51478020Y-43117344D01*
X51411040Y-43357435D01*
X52197000Y-44143395D01*
X52211143Y-44129253D01*
X52390748Y-44308858D01*
X52376605Y-44323000D01*
X52390748Y-44337143D01*
X52211143Y-44516748D01*
X52197000Y-44502605D01*
X51411040Y-45288565D01*
X51478020Y-45528656D01*
X51727048Y-45645756D01*
X51994135Y-45712023D01*
X52269017Y-45724910D01*
X52541133Y-45683922D01*
X52800023Y-45590636D01*
X52890000Y-45542543D01*
X52890000Y-48185891D01*
X52858727Y-48164995D01*
X52604490Y-48059686D01*
X52334592Y-48006000D01*
X52059408Y-48006000D01*
X51789510Y-48059686D01*
X51535273Y-48164995D01*
X51306465Y-48317880D01*
X51111880Y-48512465D01*
X50958995Y-48741273D01*
X50853686Y-48995510D01*
X50800000Y-49265408D01*
X50800000Y-49540592D01*
X50853686Y-49810490D01*
X50958995Y-50064727D01*
X51111880Y-50293535D01*
X51306465Y-50488120D01*
X51535273Y-50641005D01*
X51789510Y-50746314D01*
X52059408Y-50800000D01*
X52334592Y-50800000D01*
X52604490Y-50746314D01*
X52858727Y-50641005D01*
X53087535Y-50488120D01*
X53282120Y-50293535D01*
X53435005Y-50064727D01*
X53467000Y-49987485D01*
X53498995Y-50064727D01*
X53651880Y-50293535D01*
X53846465Y-50488120D01*
X54075273Y-50641005D01*
X54329510Y-50746314D01*
X54599408Y-50800000D01*
X54874592Y-50800000D01*
X55144490Y-50746314D01*
X55398727Y-50641005D01*
X55627535Y-50488120D01*
X55822120Y-50293535D01*
X55975005Y-50064727D01*
X56007000Y-49987485D01*
X56038995Y-50064727D01*
X56191880Y-50293535D01*
X56386465Y-50488120D01*
X56615273Y-50641005D01*
X56869510Y-50746314D01*
X57139408Y-50800000D01*
X57414592Y-50800000D01*
X57684490Y-50746314D01*
X57938727Y-50641005D01*
X58167535Y-50488120D01*
X58362120Y-50293535D01*
X58515005Y-50064727D01*
X58547000Y-49987485D01*
X58578995Y-50064727D01*
X58731880Y-50293535D01*
X58926465Y-50488120D01*
X59155273Y-50641005D01*
X59409510Y-50746314D01*
X59679408Y-50800000D01*
X59954592Y-50800000D01*
X60224490Y-50746314D01*
X60478727Y-50641005D01*
X60707535Y-50488120D01*
X60902120Y-50293535D01*
X61055005Y-50064727D01*
X61087000Y-49987485D01*
X61118995Y-50064727D01*
X61271880Y-50293535D01*
X61466465Y-50488120D01*
X61695273Y-50641005D01*
X61949510Y-50746314D01*
X62219408Y-50800000D01*
X62494592Y-50800000D01*
X62764490Y-50746314D01*
X63018727Y-50641005D01*
X63247535Y-50488120D01*
X63442120Y-50293535D01*
X63595005Y-50064727D01*
X63627000Y-49987485D01*
X63658995Y-50064727D01*
X63811880Y-50293535D01*
X64006465Y-50488120D01*
X64235273Y-50641005D01*
X64489510Y-50746314D01*
X64759408Y-50800000D01*
X65034592Y-50800000D01*
X65304490Y-50746314D01*
X65558727Y-50641005D01*
X65787535Y-50488120D01*
X65982120Y-50293535D01*
X66135005Y-50064727D01*
X66167000Y-49987485D01*
X66198995Y-50064727D01*
X66351880Y-50293535D01*
X66546465Y-50488120D01*
X66775273Y-50641005D01*
X67029510Y-50746314D01*
X67299408Y-50800000D01*
X67574592Y-50800000D01*
X67844490Y-50746314D01*
X68098727Y-50641005D01*
X68327535Y-50488120D01*
X68522120Y-50293535D01*
X68675005Y-50064727D01*
X68707000Y-49987485D01*
X68738995Y-50064727D01*
X68891880Y-50293535D01*
X69086465Y-50488120D01*
X69315273Y-50641005D01*
X69569510Y-50746314D01*
X69839408Y-50800000D01*
X70114592Y-50800000D01*
X70384490Y-50746314D01*
X70638727Y-50641005D01*
X70867535Y-50488120D01*
X71062120Y-50293535D01*
X71215005Y-50064727D01*
X71247000Y-49987485D01*
X71278995Y-50064727D01*
X71431880Y-50293535D01*
X71626465Y-50488120D01*
X71855273Y-50641005D01*
X72109510Y-50746314D01*
X72379408Y-50800000D01*
X72654592Y-50800000D01*
X72924490Y-50746314D01*
X73178727Y-50641005D01*
X73407535Y-50488120D01*
X73602120Y-50293535D01*
X73755005Y-50064727D01*
X73787000Y-49987485D01*
X73818995Y-50064727D01*
X73971880Y-50293535D01*
X74166465Y-50488120D01*
X74395273Y-50641005D01*
X74649510Y-50746314D01*
X74919408Y-50800000D01*
X75194592Y-50800000D01*
X75464490Y-50746314D01*
X75718727Y-50641005D01*
X75947535Y-50488120D01*
X76142120Y-50293535D01*
X76295005Y-50064727D01*
X76327000Y-49987485D01*
X76358995Y-50064727D01*
X76511880Y-50293535D01*
X76706465Y-50488120D01*
X76935273Y-50641005D01*
X77189510Y-50746314D01*
X77459408Y-50800000D01*
X77734592Y-50800000D01*
X78004490Y-50746314D01*
X78258727Y-50641005D01*
X78487535Y-50488120D01*
X78682120Y-50293535D01*
X78835005Y-50064727D01*
X78867000Y-49987485D01*
X78898995Y-50064727D01*
X79051880Y-50293535D01*
X79246465Y-50488120D01*
X79475273Y-50641005D01*
X79729510Y-50746314D01*
X79999408Y-50800000D01*
X80274592Y-50800000D01*
X80544490Y-50746314D01*
X80798727Y-50641005D01*
X81027535Y-50488120D01*
X81222120Y-50293535D01*
X81375005Y-50064727D01*
X81407000Y-49987485D01*
X81438995Y-50064727D01*
X81591880Y-50293535D01*
X81786465Y-50488120D01*
X82015273Y-50641005D01*
X82269510Y-50746314D01*
X82539408Y-50800000D01*
X82814592Y-50800000D01*
X83084490Y-50746314D01*
X83338727Y-50641005D01*
X83567535Y-50488120D01*
X83762120Y-50293535D01*
X83915005Y-50064727D01*
X83947000Y-49987485D01*
X83978995Y-50064727D01*
X84131880Y-50293535D01*
X84326465Y-50488120D01*
X84555273Y-50641005D01*
X84809510Y-50746314D01*
X85079408Y-50800000D01*
X85354592Y-50800000D01*
X85624490Y-50746314D01*
X85878727Y-50641005D01*
X86107535Y-50488120D01*
X86302120Y-50293535D01*
X86455005Y-50064727D01*
X86487000Y-49987485D01*
X86518995Y-50064727D01*
X86671880Y-50293535D01*
X86866465Y-50488120D01*
X87095273Y-50641005D01*
X87349510Y-50746314D01*
X87619408Y-50800000D01*
X87894592Y-50800000D01*
X88164490Y-50746314D01*
X88418727Y-50641005D01*
X88647535Y-50488120D01*
X88842120Y-50293535D01*
X88995005Y-50064727D01*
X89027000Y-49987485D01*
X89058995Y-50064727D01*
X89211880Y-50293535D01*
X89406465Y-50488120D01*
X89635273Y-50641005D01*
X89889510Y-50746314D01*
X90159408Y-50800000D01*
X90434592Y-50800000D01*
X90704490Y-50746314D01*
X90958727Y-50641005D01*
X91187535Y-50488120D01*
X91382120Y-50293535D01*
X91535005Y-50064727D01*
X91567000Y-49987485D01*
X91598995Y-50064727D01*
X91751880Y-50293535D01*
X91946465Y-50488120D01*
X92175273Y-50641005D01*
X92429510Y-50746314D01*
X92699408Y-50800000D01*
X92974592Y-50800000D01*
X93244490Y-50746314D01*
X93498727Y-50641005D01*
X93727535Y-50488120D01*
X93922120Y-50293535D01*
X94075005Y-50064727D01*
X94180314Y-49810490D01*
X94234000Y-49540592D01*
X94234000Y-49265408D01*
X94180314Y-48995510D01*
X94075005Y-48741273D01*
X93922120Y-48512465D01*
X93727535Y-48317880D01*
X93498727Y-48164995D01*
X93244490Y-48059686D01*
X92974592Y-48006000D01*
X92699408Y-48006000D01*
X92429510Y-48059686D01*
X92175273Y-48164995D01*
X91946465Y-48317880D01*
X91751880Y-48512465D01*
X91598995Y-48741273D01*
X91567000Y-48818515D01*
X91535005Y-48741273D01*
X91382120Y-48512465D01*
X91187535Y-48317880D01*
X90958727Y-48164995D01*
X90704490Y-48059686D01*
X90434592Y-48006000D01*
X90159408Y-48006000D01*
X89889510Y-48059686D01*
X89635273Y-48164995D01*
X89406465Y-48317880D01*
X89211880Y-48512465D01*
X89058995Y-48741273D01*
X89027000Y-48818515D01*
X88995005Y-48741273D01*
X88842120Y-48512465D01*
X88647535Y-48317880D01*
X88418727Y-48164995D01*
X88164490Y-48059686D01*
X87894592Y-48006000D01*
X87619408Y-48006000D01*
X87465430Y-48036628D01*
X87064001Y-47635200D01*
X87064001Y-45540873D01*
X87287048Y-45645756D01*
X87554135Y-45712023D01*
X87829017Y-45724910D01*
X88101133Y-45683922D01*
X88360023Y-45590636D01*
X88475980Y-45528656D01*
X88542960Y-45288565D01*
X89511040Y-45288565D01*
X89578020Y-45528656D01*
X89827048Y-45645756D01*
X90094135Y-45712023D01*
X90369017Y-45724910D01*
X90641133Y-45683922D01*
X90900023Y-45590636D01*
X91015980Y-45528656D01*
X91082960Y-45288565D01*
X90297000Y-44502605D01*
X89511040Y-45288565D01*
X88542960Y-45288565D01*
X87757000Y-44502605D01*
X87742858Y-44516748D01*
X87563253Y-44337143D01*
X87577395Y-44323000D01*
X87936605Y-44323000D01*
X88722565Y-45108960D01*
X88962656Y-45041980D01*
X89024079Y-44911356D01*
X89029364Y-44926023D01*
X89091344Y-45041980D01*
X89331435Y-45108960D01*
X90117395Y-44323000D01*
X90476605Y-44323000D01*
X91262565Y-45108960D01*
X91437088Y-45060272D01*
X91436928Y-45085000D01*
X91449188Y-45209482D01*
X91485498Y-45329180D01*
X91544463Y-45439494D01*
X91623815Y-45536185D01*
X91720506Y-45615537D01*
X91830820Y-45674502D01*
X91950518Y-45710812D01*
X92075000Y-45723072D01*
X92551250Y-45720000D01*
X92710000Y-45561250D01*
X92710000Y-44450000D01*
X92964000Y-44450000D01*
X92964000Y-45561250D01*
X93122750Y-45720000D01*
X93599000Y-45723072D01*
X93723482Y-45710812D01*
X93843180Y-45674502D01*
X93953494Y-45615537D01*
X94050185Y-45536185D01*
X94129537Y-45439494D01*
X94188502Y-45329180D01*
X94224812Y-45209482D01*
X94237072Y-45085000D01*
X94234000Y-44608750D01*
X94075250Y-44450000D01*
X92964000Y-44450000D01*
X92710000Y-44450000D01*
X92690000Y-44450000D01*
X92690000Y-44196000D01*
X92710000Y-44196000D01*
X92710000Y-43084750D01*
X92964000Y-43084750D01*
X92964000Y-44196000D01*
X94075250Y-44196000D01*
X94234000Y-44037250D01*
X94237072Y-43561000D01*
X94224812Y-43436518D01*
X94188502Y-43316820D01*
X94129537Y-43206506D01*
X94050185Y-43109815D01*
X93953494Y-43030463D01*
X93843180Y-42971498D01*
X93723482Y-42935188D01*
X93599000Y-42922928D01*
X93122750Y-42926000D01*
X92964000Y-43084750D01*
X92710000Y-43084750D01*
X92551250Y-42926000D01*
X92075000Y-42922928D01*
X91950518Y-42935188D01*
X91830820Y-42971498D01*
X91720506Y-43030463D01*
X91623815Y-43109815D01*
X91544463Y-43206506D01*
X91485498Y-43316820D01*
X91449188Y-43436518D01*
X91436928Y-43561000D01*
X91437088Y-43585728D01*
X91262565Y-43537040D01*
X90476605Y-44323000D01*
X90117395Y-44323000D01*
X89331435Y-43537040D01*
X89091344Y-43604020D01*
X89029921Y-43734644D01*
X89024636Y-43719977D01*
X88962656Y-43604020D01*
X88722565Y-43537040D01*
X87936605Y-44323000D01*
X87577395Y-44323000D01*
X87563253Y-44308858D01*
X87742858Y-44129253D01*
X87757000Y-44143395D01*
X88542960Y-43357435D01*
X89511040Y-43357435D01*
X90297000Y-44143395D01*
X91082960Y-43357435D01*
X91015980Y-43117344D01*
X90766952Y-43000244D01*
X90499865Y-42933977D01*
X90224983Y-42921090D01*
X89952867Y-42962078D01*
X89693977Y-43055364D01*
X89578020Y-43117344D01*
X89511040Y-43357435D01*
X88542960Y-43357435D01*
X88475980Y-43117344D01*
X88226952Y-43000244D01*
X87959865Y-42933977D01*
X87684983Y-42921090D01*
X87412867Y-42962078D01*
X87153977Y-43055364D01*
X87064001Y-43103457D01*
X87064001Y-40248800D01*
X87465430Y-39847372D01*
X87619408Y-39878000D01*
X87894592Y-39878000D01*
X88164490Y-39824314D01*
X88418727Y-39719005D01*
X88647535Y-39566120D01*
X88842120Y-39371535D01*
X88995005Y-39142727D01*
X89027000Y-39065485D01*
X89058995Y-39142727D01*
X89211880Y-39371535D01*
X89406465Y-39566120D01*
X89635273Y-39719005D01*
X89889510Y-39824314D01*
X90159408Y-39878000D01*
X90434592Y-39878000D01*
X90704490Y-39824314D01*
X90958727Y-39719005D01*
X91187535Y-39566120D01*
X91382120Y-39371535D01*
X91535005Y-39142727D01*
X91567000Y-39065485D01*
X91598995Y-39142727D01*
X91751880Y-39371535D01*
X91946465Y-39566120D01*
X92175273Y-39719005D01*
X92429510Y-39824314D01*
X92699408Y-39878000D01*
X92974592Y-39878000D01*
X93244490Y-39824314D01*
X93498727Y-39719005D01*
X93727535Y-39566120D01*
X93922120Y-39371535D01*
X94075005Y-39142727D01*
X94180314Y-38888490D01*
X94234000Y-38618592D01*
X94234000Y-38343408D01*
X94180314Y-38073510D01*
X94075005Y-37819273D01*
X93922120Y-37590465D01*
X93727535Y-37395880D01*
X93639535Y-37337080D01*
X93723482Y-37328812D01*
X93843180Y-37292502D01*
X93953494Y-37233537D01*
X94050185Y-37154185D01*
X94129537Y-37057494D01*
X94188502Y-36947180D01*
X94224812Y-36827482D01*
X94237072Y-36703000D01*
X94237072Y-35179000D01*
X94224812Y-35054518D01*
X94188502Y-34934820D01*
X94129537Y-34824506D01*
X94050185Y-34727815D01*
X93953494Y-34648463D01*
X93843180Y-34589498D01*
X93723482Y-34553188D01*
X93599000Y-34540928D01*
X92075000Y-34540928D01*
X91950518Y-34553188D01*
X91830820Y-34589498D01*
X91720506Y-34648463D01*
X91623815Y-34727815D01*
X91544463Y-34824506D01*
X91485498Y-34934820D01*
X91449188Y-35054518D01*
X91440920Y-35138465D01*
X91382120Y-35050465D01*
X91187535Y-34855880D01*
X90958727Y-34702995D01*
X90704490Y-34597686D01*
X90434592Y-34544000D01*
X90159408Y-34544000D01*
X89889510Y-34597686D01*
X89635273Y-34702995D01*
X89406465Y-34855880D01*
X89211880Y-35050465D01*
X89058995Y-35279273D01*
X89027000Y-35356515D01*
X88995005Y-35279273D01*
X88842120Y-35050465D01*
X88647535Y-34855880D01*
X88418727Y-34702995D01*
X88164490Y-34597686D01*
X87894592Y-34544000D01*
X87619408Y-34544000D01*
X87349510Y-34597686D01*
X87095273Y-34702995D01*
X86866465Y-34855880D01*
X86671880Y-35050465D01*
X86518995Y-35279273D01*
X86487000Y-35356515D01*
X86455005Y-35279273D01*
X86302120Y-35050465D01*
X86107535Y-34855880D01*
X85878727Y-34702995D01*
X85624490Y-34597686D01*
X85354592Y-34544000D01*
X85079408Y-34544000D01*
X84809510Y-34597686D01*
X84555273Y-34702995D01*
X84326465Y-34855880D01*
X84131880Y-35050465D01*
X83978995Y-35279273D01*
X83947000Y-35356515D01*
X83915005Y-35279273D01*
X83762120Y-35050465D01*
X83567535Y-34855880D01*
X83338727Y-34702995D01*
X83084490Y-34597686D01*
X82814592Y-34544000D01*
X82539408Y-34544000D01*
X82269510Y-34597686D01*
X82015273Y-34702995D01*
X81786465Y-34855880D01*
X81591880Y-35050465D01*
X81438995Y-35279273D01*
X81407000Y-35356515D01*
X81375005Y-35279273D01*
X81222120Y-35050465D01*
X81027535Y-34855880D01*
X80798727Y-34702995D01*
X80544490Y-34597686D01*
X80274592Y-34544000D01*
X79999408Y-34544000D01*
X79729510Y-34597686D01*
X79475273Y-34702995D01*
X79246465Y-34855880D01*
X79051880Y-35050465D01*
X78898995Y-35279273D01*
X78869308Y-35350943D01*
X78864636Y-35337977D01*
X78802656Y-35222020D01*
X78562565Y-35155040D01*
X77776605Y-35941000D01*
X78562565Y-36726960D01*
X78802656Y-36659980D01*
X78866485Y-36524240D01*
X78898995Y-36602727D01*
X79051880Y-36831535D01*
X79246465Y-37026120D01*
X79475273Y-37179005D01*
X79552515Y-37211000D01*
X79475273Y-37242995D01*
X79246465Y-37395880D01*
X79051880Y-37590465D01*
X78898995Y-37819273D01*
X78867000Y-37896515D01*
X78835005Y-37819273D01*
X78682120Y-37590465D01*
X78487535Y-37395880D01*
X78258727Y-37242995D01*
X78187057Y-37213308D01*
X78200023Y-37208636D01*
X78315980Y-37146656D01*
X78382960Y-36906565D01*
X77597000Y-36120605D01*
X76811040Y-36906565D01*
X76878020Y-37146656D01*
X77013760Y-37210485D01*
X76935273Y-37242995D01*
X76706465Y-37395880D01*
X76511880Y-37590465D01*
X76358995Y-37819273D01*
X76327000Y-37896515D01*
X76295005Y-37819273D01*
X76142120Y-37590465D01*
X75947535Y-37395880D01*
X75718727Y-37242995D01*
X75647057Y-37213308D01*
X75660023Y-37208636D01*
X75775980Y-37146656D01*
X75842960Y-36906565D01*
X75057000Y-36120605D01*
X74271040Y-36906565D01*
X74338020Y-37146656D01*
X74473760Y-37210485D01*
X74395273Y-37242995D01*
X74166465Y-37395880D01*
X73971880Y-37590465D01*
X73818995Y-37819273D01*
X73787000Y-37896515D01*
X73755005Y-37819273D01*
X73602120Y-37590465D01*
X73407535Y-37395880D01*
X73178727Y-37242995D01*
X73107057Y-37213308D01*
X73120023Y-37208636D01*
X73235980Y-37146656D01*
X73302960Y-36906565D01*
X72517000Y-36120605D01*
X71731040Y-36906565D01*
X71798020Y-37146656D01*
X71933760Y-37210485D01*
X71855273Y-37242995D01*
X71626465Y-37395880D01*
X71431880Y-37590465D01*
X71278995Y-37819273D01*
X71247000Y-37896515D01*
X71215005Y-37819273D01*
X71062120Y-37590465D01*
X70867535Y-37395880D01*
X70638727Y-37242995D01*
X70567057Y-37213308D01*
X70580023Y-37208636D01*
X70695980Y-37146656D01*
X70762960Y-36906565D01*
X69977000Y-36120605D01*
X69191040Y-36906565D01*
X69258020Y-37146656D01*
X69393760Y-37210485D01*
X69315273Y-37242995D01*
X69086465Y-37395880D01*
X68891880Y-37590465D01*
X68738995Y-37819273D01*
X68707000Y-37896515D01*
X68675005Y-37819273D01*
X68522120Y-37590465D01*
X68327535Y-37395880D01*
X68098727Y-37242995D01*
X68027057Y-37213308D01*
X68040023Y-37208636D01*
X68155980Y-37146656D01*
X68222960Y-36906565D01*
X67437000Y-36120605D01*
X66651040Y-36906565D01*
X66718020Y-37146656D01*
X66853760Y-37210485D01*
X66775273Y-37242995D01*
X66546465Y-37395880D01*
X66351880Y-37590465D01*
X66198995Y-37819273D01*
X66167000Y-37896515D01*
X66135005Y-37819273D01*
X65982120Y-37590465D01*
X65787535Y-37395880D01*
X65558727Y-37242995D01*
X65487057Y-37213308D01*
X65500023Y-37208636D01*
X65615980Y-37146656D01*
X65682960Y-36906565D01*
X64897000Y-36120605D01*
X64111040Y-36906565D01*
X64178020Y-37146656D01*
X64313760Y-37210485D01*
X64235273Y-37242995D01*
X64006465Y-37395880D01*
X63811880Y-37590465D01*
X63658995Y-37819273D01*
X63627000Y-37896515D01*
X63595005Y-37819273D01*
X63442120Y-37590465D01*
X63247535Y-37395880D01*
X63018727Y-37242995D01*
X62947057Y-37213308D01*
X62960023Y-37208636D01*
X63075980Y-37146656D01*
X63142960Y-36906565D01*
X62357000Y-36120605D01*
X61571040Y-36906565D01*
X61638020Y-37146656D01*
X61773760Y-37210485D01*
X61695273Y-37242995D01*
X61466465Y-37395880D01*
X61271880Y-37590465D01*
X61118995Y-37819273D01*
X61087000Y-37896515D01*
X61055005Y-37819273D01*
X60902120Y-37590465D01*
X60707535Y-37395880D01*
X60478727Y-37242995D01*
X60407057Y-37213308D01*
X60420023Y-37208636D01*
X60535980Y-37146656D01*
X60602960Y-36906565D01*
X59817000Y-36120605D01*
X59031040Y-36906565D01*
X59098020Y-37146656D01*
X59233760Y-37210485D01*
X59155273Y-37242995D01*
X58926465Y-37395880D01*
X58731880Y-37590465D01*
X58578995Y-37819273D01*
X58547000Y-37896515D01*
X58515005Y-37819273D01*
X58362120Y-37590465D01*
X58167535Y-37395880D01*
X57938727Y-37242995D01*
X57861485Y-37211000D01*
X57938727Y-37179005D01*
X58167535Y-37026120D01*
X58362120Y-36831535D01*
X58515005Y-36602727D01*
X58544692Y-36531057D01*
X58549364Y-36544023D01*
X58611344Y-36659980D01*
X58851435Y-36726960D01*
X59637395Y-35941000D01*
X59996605Y-35941000D01*
X60782565Y-36726960D01*
X61022656Y-36659980D01*
X61084079Y-36529356D01*
X61089364Y-36544023D01*
X61151344Y-36659980D01*
X61391435Y-36726960D01*
X62177395Y-35941000D01*
X62536605Y-35941000D01*
X63322565Y-36726960D01*
X63562656Y-36659980D01*
X63624079Y-36529356D01*
X63629364Y-36544023D01*
X63691344Y-36659980D01*
X63931435Y-36726960D01*
X64717395Y-35941000D01*
X65076605Y-35941000D01*
X65862565Y-36726960D01*
X66102656Y-36659980D01*
X66164079Y-36529356D01*
X66169364Y-36544023D01*
X66231344Y-36659980D01*
X66471435Y-36726960D01*
X67257395Y-35941000D01*
X67616605Y-35941000D01*
X68402565Y-36726960D01*
X68642656Y-36659980D01*
X68704079Y-36529356D01*
X68709364Y-36544023D01*
X68771344Y-36659980D01*
X69011435Y-36726960D01*
X69797395Y-35941000D01*
X70156605Y-35941000D01*
X70942565Y-36726960D01*
X71182656Y-36659980D01*
X71244079Y-36529356D01*
X71249364Y-36544023D01*
X71311344Y-36659980D01*
X71551435Y-36726960D01*
X72337395Y-35941000D01*
X72696605Y-35941000D01*
X73482565Y-36726960D01*
X73722656Y-36659980D01*
X73784079Y-36529356D01*
X73789364Y-36544023D01*
X73851344Y-36659980D01*
X74091435Y-36726960D01*
X74877395Y-35941000D01*
X75236605Y-35941000D01*
X76022565Y-36726960D01*
X76262656Y-36659980D01*
X76324079Y-36529356D01*
X76329364Y-36544023D01*
X76391344Y-36659980D01*
X76631435Y-36726960D01*
X77417395Y-35941000D01*
X76631435Y-35155040D01*
X76391344Y-35222020D01*
X76329921Y-35352644D01*
X76324636Y-35337977D01*
X76262656Y-35222020D01*
X76022565Y-35155040D01*
X75236605Y-35941000D01*
X74877395Y-35941000D01*
X74091435Y-35155040D01*
X73851344Y-35222020D01*
X73789921Y-35352644D01*
X73784636Y-35337977D01*
X73722656Y-35222020D01*
X73482565Y-35155040D01*
X72696605Y-35941000D01*
X72337395Y-35941000D01*
X71551435Y-35155040D01*
X71311344Y-35222020D01*
X71249921Y-35352644D01*
X71244636Y-35337977D01*
X71182656Y-35222020D01*
X70942565Y-35155040D01*
X70156605Y-35941000D01*
X69797395Y-35941000D01*
X69011435Y-35155040D01*
X68771344Y-35222020D01*
X68709921Y-35352644D01*
X68704636Y-35337977D01*
X68642656Y-35222020D01*
X68402565Y-35155040D01*
X67616605Y-35941000D01*
X67257395Y-35941000D01*
X66471435Y-35155040D01*
X66231344Y-35222020D01*
X66169921Y-35352644D01*
X66164636Y-35337977D01*
X66102656Y-35222020D01*
X65862565Y-35155040D01*
X65076605Y-35941000D01*
X64717395Y-35941000D01*
X63931435Y-35155040D01*
X63691344Y-35222020D01*
X63629921Y-35352644D01*
X63624636Y-35337977D01*
X63562656Y-35222020D01*
X63322565Y-35155040D01*
X62536605Y-35941000D01*
X62177395Y-35941000D01*
X61391435Y-35155040D01*
X61151344Y-35222020D01*
X61089921Y-35352644D01*
X61084636Y-35337977D01*
X61022656Y-35222020D01*
X60782565Y-35155040D01*
X59996605Y-35941000D01*
X59637395Y-35941000D01*
X58851435Y-35155040D01*
X58611344Y-35222020D01*
X58547515Y-35357760D01*
X58515005Y-35279273D01*
X58362120Y-35050465D01*
X58287090Y-34975435D01*
X59031040Y-34975435D01*
X59817000Y-35761395D01*
X60602960Y-34975435D01*
X61571040Y-34975435D01*
X62357000Y-35761395D01*
X63142960Y-34975435D01*
X64111040Y-34975435D01*
X64897000Y-35761395D01*
X65682960Y-34975435D01*
X66651040Y-34975435D01*
X67437000Y-35761395D01*
X68222960Y-34975435D01*
X69191040Y-34975435D01*
X69977000Y-35761395D01*
X70762960Y-34975435D01*
X71731040Y-34975435D01*
X72517000Y-35761395D01*
X73302960Y-34975435D01*
X74271040Y-34975435D01*
X75057000Y-35761395D01*
X75842960Y-34975435D01*
X76811040Y-34975435D01*
X77597000Y-35761395D01*
X78382960Y-34975435D01*
X78315980Y-34735344D01*
X78066952Y-34618244D01*
X77799865Y-34551977D01*
X77524983Y-34539090D01*
X77252867Y-34580078D01*
X76993977Y-34673364D01*
X76878020Y-34735344D01*
X76811040Y-34975435D01*
X75842960Y-34975435D01*
X75775980Y-34735344D01*
X75526952Y-34618244D01*
X75259865Y-34551977D01*
X74984983Y-34539090D01*
X74712867Y-34580078D01*
X74453977Y-34673364D01*
X74338020Y-34735344D01*
X74271040Y-34975435D01*
X73302960Y-34975435D01*
X73235980Y-34735344D01*
X72986952Y-34618244D01*
X72719865Y-34551977D01*
X72444983Y-34539090D01*
X72172867Y-34580078D01*
X71913977Y-34673364D01*
X71798020Y-34735344D01*
X71731040Y-34975435D01*
X70762960Y-34975435D01*
X70695980Y-34735344D01*
X70446952Y-34618244D01*
X70179865Y-34551977D01*
X69904983Y-34539090D01*
X69632867Y-34580078D01*
X69373977Y-34673364D01*
X69258020Y-34735344D01*
X69191040Y-34975435D01*
X68222960Y-34975435D01*
X68155980Y-34735344D01*
X67906952Y-34618244D01*
X67639865Y-34551977D01*
X67364983Y-34539090D01*
X67092867Y-34580078D01*
X66833977Y-34673364D01*
X66718020Y-34735344D01*
X66651040Y-34975435D01*
X65682960Y-34975435D01*
X65615980Y-34735344D01*
X65366952Y-34618244D01*
X65099865Y-34551977D01*
X64824983Y-34539090D01*
X64552867Y-34580078D01*
X64293977Y-34673364D01*
X64178020Y-34735344D01*
X64111040Y-34975435D01*
X63142960Y-34975435D01*
X63075980Y-34735344D01*
X62826952Y-34618244D01*
X62559865Y-34551977D01*
X62284983Y-34539090D01*
X62012867Y-34580078D01*
X61753977Y-34673364D01*
X61638020Y-34735344D01*
X61571040Y-34975435D01*
X60602960Y-34975435D01*
X60535980Y-34735344D01*
X60286952Y-34618244D01*
X60019865Y-34551977D01*
X59744983Y-34539090D01*
X59472867Y-34580078D01*
X59213977Y-34673364D01*
X59098020Y-34735344D01*
X59031040Y-34975435D01*
X58287090Y-34975435D01*
X58167535Y-34855880D01*
X57938727Y-34702995D01*
X57684490Y-34597686D01*
X57414592Y-34544000D01*
X57139408Y-34544000D01*
X56869510Y-34597686D01*
X56615273Y-34702995D01*
X56386465Y-34855880D01*
X56191880Y-35050465D01*
X56038995Y-35279273D01*
X56007000Y-35356515D01*
X55975005Y-35279273D01*
X55822120Y-35050465D01*
X55627535Y-34855880D01*
X55398727Y-34702995D01*
X55144490Y-34597686D01*
X54874592Y-34544000D01*
X54599408Y-34544000D01*
X54329510Y-34597686D01*
X54075273Y-34702995D01*
X53846465Y-34855880D01*
X53651880Y-35050465D01*
X53498995Y-35279273D01*
X53467000Y-35356515D01*
X53435005Y-35279273D01*
X53282120Y-35050465D01*
X53087535Y-34855880D01*
X52858727Y-34702995D01*
X52604490Y-34597686D01*
X52334592Y-34544000D01*
X52059408Y-34544000D01*
X51789510Y-34597686D01*
X51535273Y-34702995D01*
X51306465Y-34855880D01*
X51111880Y-35050465D01*
X50958995Y-35279273D01*
X50853686Y-35533510D01*
X50800000Y-35803408D01*
X47523000Y-35803408D01*
X47523000Y-33045000D01*
X97511000Y-33045000D01*
X97511001Y-51283000D01*
G37*
X97511001Y-51283000D02*
X47523000Y-51283000D01*
X47523000Y-44395017D01*
X50795090Y-44395017D01*
X50836078Y-44667133D01*
X50929364Y-44926023D01*
X50991344Y-45041980D01*
X51231435Y-45108960D01*
X52017395Y-44323000D01*
X51231435Y-43537040D01*
X50991344Y-43604020D01*
X50874244Y-43853048D01*
X50807977Y-44120135D01*
X50795090Y-44395017D01*
X47523000Y-44395017D01*
X47523000Y-35803408D01*
X50800000Y-35803408D01*
X50800000Y-36078592D01*
X50853686Y-36348490D01*
X50958995Y-36602727D01*
X51111880Y-36831535D01*
X51306465Y-37026120D01*
X51535273Y-37179005D01*
X51612515Y-37211000D01*
X51535273Y-37242995D01*
X51306465Y-37395880D01*
X51111880Y-37590465D01*
X50958995Y-37819273D01*
X50853686Y-38073510D01*
X50800000Y-38343408D01*
X50800000Y-38618592D01*
X50853686Y-38888490D01*
X50958995Y-39142727D01*
X51111880Y-39371535D01*
X51306465Y-39566120D01*
X51535273Y-39719005D01*
X51789510Y-39824314D01*
X52059408Y-39878000D01*
X52334592Y-39878000D01*
X52604490Y-39824314D01*
X52858727Y-39719005D01*
X52889999Y-39698110D01*
X52889999Y-43105127D01*
X52666952Y-43000244D01*
X52399865Y-42933977D01*
X52124983Y-42921090D01*
X51852867Y-42962078D01*
X51593977Y-43055364D01*
X51478020Y-43117344D01*
X51411040Y-43357435D01*
X52197000Y-44143395D01*
X52211143Y-44129253D01*
X52390748Y-44308858D01*
X52376605Y-44323000D01*
X52390748Y-44337143D01*
X52211143Y-44516748D01*
X52197000Y-44502605D01*
X51411040Y-45288565D01*
X51478020Y-45528656D01*
X51727048Y-45645756D01*
X51994135Y-45712023D01*
X52269017Y-45724910D01*
X52541133Y-45683922D01*
X52800023Y-45590636D01*
X52890000Y-45542543D01*
X52890000Y-48185891D01*
X52858727Y-48164995D01*
X52604490Y-48059686D01*
X52334592Y-48006000D01*
X52059408Y-48006000D01*
X51789510Y-48059686D01*
X51535273Y-48164995D01*
X51306465Y-48317880D01*
X51111880Y-48512465D01*
X50958995Y-48741273D01*
X50853686Y-48995510D01*
X50800000Y-49265408D01*
X50800000Y-49540592D01*
X50853686Y-49810490D01*
X50958995Y-50064727D01*
X51111880Y-50293535D01*
X51306465Y-50488120D01*
X51535273Y-50641005D01*
X51789510Y-50746314D01*
X52059408Y-50800000D01*
X52334592Y-50800000D01*
X52604490Y-50746314D01*
X52858727Y-50641005D01*
X53087535Y-50488120D01*
X53282120Y-50293535D01*
X53435005Y-50064727D01*
X53467000Y-49987485D01*
X53498995Y-50064727D01*
X53651880Y-50293535D01*
X53846465Y-50488120D01*
X54075273Y-50641005D01*
X54329510Y-50746314D01*
X54599408Y-50800000D01*
X54874592Y-50800000D01*
X55144490Y-50746314D01*
X55398727Y-50641005D01*
X55627535Y-50488120D01*
X55822120Y-50293535D01*
X55975005Y-50064727D01*
X56007000Y-49987485D01*
X56038995Y-50064727D01*
X56191880Y-50293535D01*
X56386465Y-50488120D01*
X56615273Y-50641005D01*
X56869510Y-50746314D01*
X57139408Y-50800000D01*
X57414592Y-50800000D01*
X57684490Y-50746314D01*
X57938727Y-50641005D01*
X58167535Y-50488120D01*
X58362120Y-50293535D01*
X58515005Y-50064727D01*
X58547000Y-49987485D01*
X58578995Y-50064727D01*
X58731880Y-50293535D01*
X58926465Y-50488120D01*
X59155273Y-50641005D01*
X59409510Y-50746314D01*
X59679408Y-50800000D01*
X59954592Y-50800000D01*
X60224490Y-50746314D01*
X60478727Y-50641005D01*
X60707535Y-50488120D01*
X60902120Y-50293535D01*
X61055005Y-50064727D01*
X61087000Y-49987485D01*
X61118995Y-50064727D01*
X61271880Y-50293535D01*
X61466465Y-50488120D01*
X61695273Y-50641005D01*
X61949510Y-50746314D01*
X62219408Y-50800000D01*
X62494592Y-50800000D01*
X62764490Y-50746314D01*
X63018727Y-50641005D01*
X63247535Y-50488120D01*
X63442120Y-50293535D01*
X63595005Y-50064727D01*
X63627000Y-49987485D01*
X63658995Y-50064727D01*
X63811880Y-50293535D01*
X64006465Y-50488120D01*
X64235273Y-50641005D01*
X64489510Y-50746314D01*
X64759408Y-50800000D01*
X65034592Y-50800000D01*
X65304490Y-50746314D01*
X65558727Y-50641005D01*
X65787535Y-50488120D01*
X65982120Y-50293535D01*
X66135005Y-50064727D01*
X66167000Y-49987485D01*
X66198995Y-50064727D01*
X66351880Y-50293535D01*
X66546465Y-50488120D01*
X66775273Y-50641005D01*
X67029510Y-50746314D01*
X67299408Y-50800000D01*
X67574592Y-50800000D01*
X67844490Y-50746314D01*
X68098727Y-50641005D01*
X68327535Y-50488120D01*
X68522120Y-50293535D01*
X68675005Y-50064727D01*
X68707000Y-49987485D01*
X68738995Y-50064727D01*
X68891880Y-50293535D01*
X69086465Y-50488120D01*
X69315273Y-50641005D01*
X69569510Y-50746314D01*
X69839408Y-50800000D01*
X70114592Y-50800000D01*
X70384490Y-50746314D01*
X70638727Y-50641005D01*
X70867535Y-50488120D01*
X71062120Y-50293535D01*
X71215005Y-50064727D01*
X71247000Y-49987485D01*
X71278995Y-50064727D01*
X71431880Y-50293535D01*
X71626465Y-50488120D01*
X71855273Y-50641005D01*
X72109510Y-50746314D01*
X72379408Y-50800000D01*
X72654592Y-50800000D01*
X72924490Y-50746314D01*
X73178727Y-50641005D01*
X73407535Y-50488120D01*
X73602120Y-50293535D01*
X73755005Y-50064727D01*
X73787000Y-49987485D01*
X73818995Y-50064727D01*
X73971880Y-50293535D01*
X74166465Y-50488120D01*
X74395273Y-50641005D01*
X74649510Y-50746314D01*
X74919408Y-50800000D01*
X75194592Y-50800000D01*
X75464490Y-50746314D01*
X75718727Y-50641005D01*
X75947535Y-50488120D01*
X76142120Y-50293535D01*
X76295005Y-50064727D01*
X76327000Y-49987485D01*
X76358995Y-50064727D01*
X76511880Y-50293535D01*
X76706465Y-50488120D01*
X76935273Y-50641005D01*
X77189510Y-50746314D01*
X77459408Y-50800000D01*
X77734592Y-50800000D01*
X78004490Y-50746314D01*
X78258727Y-50641005D01*
X78487535Y-50488120D01*
X78682120Y-50293535D01*
X78835005Y-50064727D01*
X78867000Y-49987485D01*
X78898995Y-50064727D01*
X79051880Y-50293535D01*
X79246465Y-50488120D01*
X79475273Y-50641005D01*
X79729510Y-50746314D01*
X79999408Y-50800000D01*
X80274592Y-50800000D01*
X80544490Y-50746314D01*
X80798727Y-50641005D01*
X81027535Y-50488120D01*
X81222120Y-50293535D01*
X81375005Y-50064727D01*
X81407000Y-49987485D01*
X81438995Y-50064727D01*
X81591880Y-50293535D01*
X81786465Y-50488120D01*
X82015273Y-50641005D01*
X82269510Y-50746314D01*
X82539408Y-50800000D01*
X82814592Y-50800000D01*
X83084490Y-50746314D01*
X83338727Y-50641005D01*
X83567535Y-50488120D01*
X83762120Y-50293535D01*
X83915005Y-50064727D01*
X83947000Y-49987485D01*
X83978995Y-50064727D01*
X84131880Y-50293535D01*
X84326465Y-50488120D01*
X84555273Y-50641005D01*
X84809510Y-50746314D01*
X85079408Y-50800000D01*
X85354592Y-50800000D01*
X85624490Y-50746314D01*
X85878727Y-50641005D01*
X86107535Y-50488120D01*
X86302120Y-50293535D01*
X86455005Y-50064727D01*
X86487000Y-49987485D01*
X86518995Y-50064727D01*
X86671880Y-50293535D01*
X86866465Y-50488120D01*
X87095273Y-50641005D01*
X87349510Y-50746314D01*
X87619408Y-50800000D01*
X87894592Y-50800000D01*
X88164490Y-50746314D01*
X88418727Y-50641005D01*
X88647535Y-50488120D01*
X88842120Y-50293535D01*
X88995005Y-50064727D01*
X89027000Y-49987485D01*
X89058995Y-50064727D01*
X89211880Y-50293535D01*
X89406465Y-50488120D01*
X89635273Y-50641005D01*
X89889510Y-50746314D01*
X90159408Y-50800000D01*
X90434592Y-50800000D01*
X90704490Y-50746314D01*
X90958727Y-50641005D01*
X91187535Y-50488120D01*
X91382120Y-50293535D01*
X91535005Y-50064727D01*
X91567000Y-49987485D01*
X91598995Y-50064727D01*
X91751880Y-50293535D01*
X91946465Y-50488120D01*
X92175273Y-50641005D01*
X92429510Y-50746314D01*
X92699408Y-50800000D01*
X92974592Y-50800000D01*
X93244490Y-50746314D01*
X93498727Y-50641005D01*
X93727535Y-50488120D01*
X93922120Y-50293535D01*
X94075005Y-50064727D01*
X94180314Y-49810490D01*
X94234000Y-49540592D01*
X94234000Y-49265408D01*
X94180314Y-48995510D01*
X94075005Y-48741273D01*
X93922120Y-48512465D01*
X93727535Y-48317880D01*
X93498727Y-48164995D01*
X93244490Y-48059686D01*
X92974592Y-48006000D01*
X92699408Y-48006000D01*
X92429510Y-48059686D01*
X92175273Y-48164995D01*
X91946465Y-48317880D01*
X91751880Y-48512465D01*
X91598995Y-48741273D01*
X91567000Y-48818515D01*
X91535005Y-48741273D01*
X91382120Y-48512465D01*
X91187535Y-48317880D01*
X90958727Y-48164995D01*
X90704490Y-48059686D01*
X90434592Y-48006000D01*
X90159408Y-48006000D01*
X89889510Y-48059686D01*
X89635273Y-48164995D01*
X89406465Y-48317880D01*
X89211880Y-48512465D01*
X89058995Y-48741273D01*
X89027000Y-48818515D01*
X88995005Y-48741273D01*
X88842120Y-48512465D01*
X88647535Y-48317880D01*
X88418727Y-48164995D01*
X88164490Y-48059686D01*
X87894592Y-48006000D01*
X87619408Y-48006000D01*
X87465430Y-48036628D01*
X87064001Y-47635200D01*
X87064001Y-45540873D01*
X87287048Y-45645756D01*
X87554135Y-45712023D01*
X87829017Y-45724910D01*
X88101133Y-45683922D01*
X88360023Y-45590636D01*
X88475980Y-45528656D01*
X88542960Y-45288565D01*
X89511040Y-45288565D01*
X89578020Y-45528656D01*
X89827048Y-45645756D01*
X90094135Y-45712023D01*
X90369017Y-45724910D01*
X90641133Y-45683922D01*
X90900023Y-45590636D01*
X91015980Y-45528656D01*
X91082960Y-45288565D01*
X90297000Y-44502605D01*
X89511040Y-45288565D01*
X88542960Y-45288565D01*
X87757000Y-44502605D01*
X87742858Y-44516748D01*
X87563253Y-44337143D01*
X87577395Y-44323000D01*
X87936605Y-44323000D01*
X88722565Y-45108960D01*
X88962656Y-45041980D01*
X89024079Y-44911356D01*
X89029364Y-44926023D01*
X89091344Y-45041980D01*
X89331435Y-45108960D01*
X90117395Y-44323000D01*
X90476605Y-44323000D01*
X91262565Y-45108960D01*
X91437088Y-45060272D01*
X91436928Y-45085000D01*
X91449188Y-45209482D01*
X91485498Y-45329180D01*
X91544463Y-45439494D01*
X91623815Y-45536185D01*
X91720506Y-45615537D01*
X91830820Y-45674502D01*
X91950518Y-45710812D01*
X92075000Y-45723072D01*
X92551250Y-45720000D01*
X92710000Y-45561250D01*
X92710000Y-44450000D01*
X92964000Y-44450000D01*
X92964000Y-45561250D01*
X93122750Y-45720000D01*
X93599000Y-45723072D01*
X93723482Y-45710812D01*
X93843180Y-45674502D01*
X93953494Y-45615537D01*
X94050185Y-45536185D01*
X94129537Y-45439494D01*
X94188502Y-45329180D01*
X94224812Y-45209482D01*
X94237072Y-45085000D01*
X94234000Y-44608750D01*
X94075250Y-44450000D01*
X92964000Y-44450000D01*
X92710000Y-44450000D01*
X92690000Y-44450000D01*
X92690000Y-44196000D01*
X92710000Y-44196000D01*
X92710000Y-43084750D01*
X92964000Y-43084750D01*
X92964000Y-44196000D01*
X94075250Y-44196000D01*
X94234000Y-44037250D01*
X94237072Y-43561000D01*
X94224812Y-43436518D01*
X94188502Y-43316820D01*
X94129537Y-43206506D01*
X94050185Y-43109815D01*
X93953494Y-43030463D01*
X93843180Y-42971498D01*
X93723482Y-42935188D01*
X93599000Y-42922928D01*
X93122750Y-42926000D01*
X92964000Y-43084750D01*
X92710000Y-43084750D01*
X92551250Y-42926000D01*
X92075000Y-42922928D01*
X91950518Y-42935188D01*
X91830820Y-42971498D01*
X91720506Y-43030463D01*
X91623815Y-43109815D01*
X91544463Y-43206506D01*
X91485498Y-43316820D01*
X91449188Y-43436518D01*
X91436928Y-43561000D01*
X91437088Y-43585728D01*
X91262565Y-43537040D01*
X90476605Y-44323000D01*
X90117395Y-44323000D01*
X89331435Y-43537040D01*
X89091344Y-43604020D01*
X89029921Y-43734644D01*
X89024636Y-43719977D01*
X88962656Y-43604020D01*
X88722565Y-43537040D01*
X87936605Y-44323000D01*
X87577395Y-44323000D01*
X87563253Y-44308858D01*
X87742858Y-44129253D01*
X87757000Y-44143395D01*
X88542960Y-43357435D01*
X89511040Y-43357435D01*
X90297000Y-44143395D01*
X91082960Y-43357435D01*
X91015980Y-43117344D01*
X90766952Y-43000244D01*
X90499865Y-42933977D01*
X90224983Y-42921090D01*
X89952867Y-42962078D01*
X89693977Y-43055364D01*
X89578020Y-43117344D01*
X89511040Y-43357435D01*
X88542960Y-43357435D01*
X88475980Y-43117344D01*
X88226952Y-43000244D01*
X87959865Y-42933977D01*
X87684983Y-42921090D01*
X87412867Y-42962078D01*
X87153977Y-43055364D01*
X87064001Y-43103457D01*
X87064001Y-40248800D01*
X87465430Y-39847372D01*
X87619408Y-39878000D01*
X87894592Y-39878000D01*
X88164490Y-39824314D01*
X88418727Y-39719005D01*
X88647535Y-39566120D01*
X88842120Y-39371535D01*
X88995005Y-39142727D01*
X89027000Y-39065485D01*
X89058995Y-39142727D01*
X89211880Y-39371535D01*
X89406465Y-39566120D01*
X89635273Y-39719005D01*
X89889510Y-39824314D01*
X90159408Y-39878000D01*
X90434592Y-39878000D01*
X90704490Y-39824314D01*
X90958727Y-39719005D01*
X91187535Y-39566120D01*
X91382120Y-39371535D01*
X91535005Y-39142727D01*
X91567000Y-39065485D01*
X91598995Y-39142727D01*
X91751880Y-39371535D01*
X91946465Y-39566120D01*
X92175273Y-39719005D01*
X92429510Y-39824314D01*
X92699408Y-39878000D01*
X92974592Y-39878000D01*
X93244490Y-39824314D01*
X93498727Y-39719005D01*
X93727535Y-39566120D01*
X93922120Y-39371535D01*
X94075005Y-39142727D01*
X94180314Y-38888490D01*
X94234000Y-38618592D01*
X94234000Y-38343408D01*
X94180314Y-38073510D01*
X94075005Y-37819273D01*
X93922120Y-37590465D01*
X93727535Y-37395880D01*
X93639535Y-37337080D01*
X93723482Y-37328812D01*
X93843180Y-37292502D01*
X93953494Y-37233537D01*
X94050185Y-37154185D01*
X94129537Y-37057494D01*
X94188502Y-36947180D01*
X94224812Y-36827482D01*
X94237072Y-36703000D01*
X94237072Y-35179000D01*
X94224812Y-35054518D01*
X94188502Y-34934820D01*
X94129537Y-34824506D01*
X94050185Y-34727815D01*
X93953494Y-34648463D01*
X93843180Y-34589498D01*
X93723482Y-34553188D01*
X93599000Y-34540928D01*
X92075000Y-34540928D01*
X91950518Y-34553188D01*
X91830820Y-34589498D01*
X91720506Y-34648463D01*
X91623815Y-34727815D01*
X91544463Y-34824506D01*
X91485498Y-34934820D01*
X91449188Y-35054518D01*
X91440920Y-35138465D01*
X91382120Y-35050465D01*
X91187535Y-34855880D01*
X90958727Y-34702995D01*
X90704490Y-34597686D01*
X90434592Y-34544000D01*
X90159408Y-34544000D01*
X89889510Y-34597686D01*
X89635273Y-34702995D01*
X89406465Y-34855880D01*
X89211880Y-35050465D01*
X89058995Y-35279273D01*
X89027000Y-35356515D01*
X88995005Y-35279273D01*
X88842120Y-35050465D01*
X88647535Y-34855880D01*
X88418727Y-34702995D01*
X88164490Y-34597686D01*
X87894592Y-34544000D01*
X87619408Y-34544000D01*
X87349510Y-34597686D01*
X87095273Y-34702995D01*
X86866465Y-34855880D01*
X86671880Y-35050465D01*
X86518995Y-35279273D01*
X86487000Y-35356515D01*
X86455005Y-35279273D01*
X86302120Y-35050465D01*
X86107535Y-34855880D01*
X85878727Y-34702995D01*
X85624490Y-34597686D01*
X85354592Y-34544000D01*
X85079408Y-34544000D01*
X84809510Y-34597686D01*
X84555273Y-34702995D01*
X84326465Y-34855880D01*
X84131880Y-35050465D01*
X83978995Y-35279273D01*
X83947000Y-35356515D01*
X83915005Y-35279273D01*
X83762120Y-35050465D01*
X83567535Y-34855880D01*
X83338727Y-34702995D01*
X83084490Y-34597686D01*
X82814592Y-34544000D01*
X82539408Y-34544000D01*
X82269510Y-34597686D01*
X82015273Y-34702995D01*
X81786465Y-34855880D01*
X81591880Y-35050465D01*
X81438995Y-35279273D01*
X81407000Y-35356515D01*
X81375005Y-35279273D01*
X81222120Y-35050465D01*
X81027535Y-34855880D01*
X80798727Y-34702995D01*
X80544490Y-34597686D01*
X80274592Y-34544000D01*
X79999408Y-34544000D01*
X79729510Y-34597686D01*
X79475273Y-34702995D01*
X79246465Y-34855880D01*
X79051880Y-35050465D01*
X78898995Y-35279273D01*
X78869308Y-35350943D01*
X78864636Y-35337977D01*
X78802656Y-35222020D01*
X78562565Y-35155040D01*
X77776605Y-35941000D01*
X78562565Y-36726960D01*
X78802656Y-36659980D01*
X78866485Y-36524240D01*
X78898995Y-36602727D01*
X79051880Y-36831535D01*
X79246465Y-37026120D01*
X79475273Y-37179005D01*
X79552515Y-37211000D01*
X79475273Y-37242995D01*
X79246465Y-37395880D01*
X79051880Y-37590465D01*
X78898995Y-37819273D01*
X78867000Y-37896515D01*
X78835005Y-37819273D01*
X78682120Y-37590465D01*
X78487535Y-37395880D01*
X78258727Y-37242995D01*
X78187057Y-37213308D01*
X78200023Y-37208636D01*
X78315980Y-37146656D01*
X78382960Y-36906565D01*
X77597000Y-36120605D01*
X76811040Y-36906565D01*
X76878020Y-37146656D01*
X77013760Y-37210485D01*
X76935273Y-37242995D01*
X76706465Y-37395880D01*
X76511880Y-37590465D01*
X76358995Y-37819273D01*
X76327000Y-37896515D01*
X76295005Y-37819273D01*
X76142120Y-37590465D01*
X75947535Y-37395880D01*
X75718727Y-37242995D01*
X75647057Y-37213308D01*
X75660023Y-37208636D01*
X75775980Y-37146656D01*
X75842960Y-36906565D01*
X75057000Y-36120605D01*
X74271040Y-36906565D01*
X74338020Y-37146656D01*
X74473760Y-37210485D01*
X74395273Y-37242995D01*
X74166465Y-37395880D01*
X73971880Y-37590465D01*
X73818995Y-37819273D01*
X73787000Y-37896515D01*
X73755005Y-37819273D01*
X73602120Y-37590465D01*
X73407535Y-37395880D01*
X73178727Y-37242995D01*
X73107057Y-37213308D01*
X73120023Y-37208636D01*
X73235980Y-37146656D01*
X73302960Y-36906565D01*
X72517000Y-36120605D01*
X71731040Y-36906565D01*
X71798020Y-37146656D01*
X71933760Y-37210485D01*
X71855273Y-37242995D01*
X71626465Y-37395880D01*
X71431880Y-37590465D01*
X71278995Y-37819273D01*
X71247000Y-37896515D01*
X71215005Y-37819273D01*
X71062120Y-37590465D01*
X70867535Y-37395880D01*
X70638727Y-37242995D01*
X70567057Y-37213308D01*
X70580023Y-37208636D01*
X70695980Y-37146656D01*
X70762960Y-36906565D01*
X69977000Y-36120605D01*
X69191040Y-36906565D01*
X69258020Y-37146656D01*
X69393760Y-37210485D01*
X69315273Y-37242995D01*
X69086465Y-37395880D01*
X68891880Y-37590465D01*
X68738995Y-37819273D01*
X68707000Y-37896515D01*
X68675005Y-37819273D01*
X68522120Y-37590465D01*
X68327535Y-37395880D01*
X68098727Y-37242995D01*
X68027057Y-37213308D01*
X68040023Y-37208636D01*
X68155980Y-37146656D01*
X68222960Y-36906565D01*
X67437000Y-36120605D01*
X66651040Y-36906565D01*
X66718020Y-37146656D01*
X66853760Y-37210485D01*
X66775273Y-37242995D01*
X66546465Y-37395880D01*
X66351880Y-37590465D01*
X66198995Y-37819273D01*
X66167000Y-37896515D01*
X66135005Y-37819273D01*
X65982120Y-37590465D01*
X65787535Y-37395880D01*
X65558727Y-37242995D01*
X65487057Y-37213308D01*
X65500023Y-37208636D01*
X65615980Y-37146656D01*
X65682960Y-36906565D01*
X64897000Y-36120605D01*
X64111040Y-36906565D01*
X64178020Y-37146656D01*
X64313760Y-37210485D01*
X64235273Y-37242995D01*
X64006465Y-37395880D01*
X63811880Y-37590465D01*
X63658995Y-37819273D01*
X63627000Y-37896515D01*
X63595005Y-37819273D01*
X63442120Y-37590465D01*
X63247535Y-37395880D01*
X63018727Y-37242995D01*
X62947057Y-37213308D01*
X62960023Y-37208636D01*
X63075980Y-37146656D01*
X63142960Y-36906565D01*
X62357000Y-36120605D01*
X61571040Y-36906565D01*
X61638020Y-37146656D01*
X61773760Y-37210485D01*
X61695273Y-37242995D01*
X61466465Y-37395880D01*
X61271880Y-37590465D01*
X61118995Y-37819273D01*
X61087000Y-37896515D01*
X61055005Y-37819273D01*
X60902120Y-37590465D01*
X60707535Y-37395880D01*
X60478727Y-37242995D01*
X60407057Y-37213308D01*
X60420023Y-37208636D01*
X60535980Y-37146656D01*
X60602960Y-36906565D01*
X59817000Y-36120605D01*
X59031040Y-36906565D01*
X59098020Y-37146656D01*
X59233760Y-37210485D01*
X59155273Y-37242995D01*
X58926465Y-37395880D01*
X58731880Y-37590465D01*
X58578995Y-37819273D01*
X58547000Y-37896515D01*
X58515005Y-37819273D01*
X58362120Y-37590465D01*
X58167535Y-37395880D01*
X57938727Y-37242995D01*
X57861485Y-37211000D01*
X57938727Y-37179005D01*
X58167535Y-37026120D01*
X58362120Y-36831535D01*
X58515005Y-36602727D01*
X58544692Y-36531057D01*
X58549364Y-36544023D01*
X58611344Y-36659980D01*
X58851435Y-36726960D01*
X59637395Y-35941000D01*
X59996605Y-35941000D01*
X60782565Y-36726960D01*
X61022656Y-36659980D01*
X61084079Y-36529356D01*
X61089364Y-36544023D01*
X61151344Y-36659980D01*
X61391435Y-36726960D01*
X62177395Y-35941000D01*
X62536605Y-35941000D01*
X63322565Y-36726960D01*
X63562656Y-36659980D01*
X63624079Y-36529356D01*
X63629364Y-36544023D01*
X63691344Y-36659980D01*
X63931435Y-36726960D01*
X64717395Y-35941000D01*
X65076605Y-35941000D01*
X65862565Y-36726960D01*
X66102656Y-36659980D01*
X66164079Y-36529356D01*
X66169364Y-36544023D01*
X66231344Y-36659980D01*
X66471435Y-36726960D01*
X67257395Y-35941000D01*
X67616605Y-35941000D01*
X68402565Y-36726960D01*
X68642656Y-36659980D01*
X68704079Y-36529356D01*
X68709364Y-36544023D01*
X68771344Y-36659980D01*
X69011435Y-36726960D01*
X69797395Y-35941000D01*
X70156605Y-35941000D01*
X70942565Y-36726960D01*
X71182656Y-36659980D01*
X71244079Y-36529356D01*
X71249364Y-36544023D01*
X71311344Y-36659980D01*
X71551435Y-36726960D01*
X72337395Y-35941000D01*
X72696605Y-35941000D01*
X73482565Y-36726960D01*
X73722656Y-36659980D01*
X73784079Y-36529356D01*
X73789364Y-36544023D01*
X73851344Y-36659980D01*
X74091435Y-36726960D01*
X74877395Y-35941000D01*
X75236605Y-35941000D01*
X76022565Y-36726960D01*
X76262656Y-36659980D01*
X76324079Y-36529356D01*
X76329364Y-36544023D01*
X76391344Y-36659980D01*
X76631435Y-36726960D01*
X77417395Y-35941000D01*
X76631435Y-35155040D01*
X76391344Y-35222020D01*
X76329921Y-35352644D01*
X76324636Y-35337977D01*
X76262656Y-35222020D01*
X76022565Y-35155040D01*
X75236605Y-35941000D01*
X74877395Y-35941000D01*
X74091435Y-35155040D01*
X73851344Y-35222020D01*
X73789921Y-35352644D01*
X73784636Y-35337977D01*
X73722656Y-35222020D01*
X73482565Y-35155040D01*
X72696605Y-35941000D01*
X72337395Y-35941000D01*
X71551435Y-35155040D01*
X71311344Y-35222020D01*
X71249921Y-35352644D01*
X71244636Y-35337977D01*
X71182656Y-35222020D01*
X70942565Y-35155040D01*
X70156605Y-35941000D01*
X69797395Y-35941000D01*
X69011435Y-35155040D01*
X68771344Y-35222020D01*
X68709921Y-35352644D01*
X68704636Y-35337977D01*
X68642656Y-35222020D01*
X68402565Y-35155040D01*
X67616605Y-35941000D01*
X67257395Y-35941000D01*
X66471435Y-35155040D01*
X66231344Y-35222020D01*
X66169921Y-35352644D01*
X66164636Y-35337977D01*
X66102656Y-35222020D01*
X65862565Y-35155040D01*
X65076605Y-35941000D01*
X64717395Y-35941000D01*
X63931435Y-35155040D01*
X63691344Y-35222020D01*
X63629921Y-35352644D01*
X63624636Y-35337977D01*
X63562656Y-35222020D01*
X63322565Y-35155040D01*
X62536605Y-35941000D01*
X62177395Y-35941000D01*
X61391435Y-35155040D01*
X61151344Y-35222020D01*
X61089921Y-35352644D01*
X61084636Y-35337977D01*
X61022656Y-35222020D01*
X60782565Y-35155040D01*
X59996605Y-35941000D01*
X59637395Y-35941000D01*
X58851435Y-35155040D01*
X58611344Y-35222020D01*
X58547515Y-35357760D01*
X58515005Y-35279273D01*
X58362120Y-35050465D01*
X58287090Y-34975435D01*
X59031040Y-34975435D01*
X59817000Y-35761395D01*
X60602960Y-34975435D01*
X61571040Y-34975435D01*
X62357000Y-35761395D01*
X63142960Y-34975435D01*
X64111040Y-34975435D01*
X64897000Y-35761395D01*
X65682960Y-34975435D01*
X66651040Y-34975435D01*
X67437000Y-35761395D01*
X68222960Y-34975435D01*
X69191040Y-34975435D01*
X69977000Y-35761395D01*
X70762960Y-34975435D01*
X71731040Y-34975435D01*
X72517000Y-35761395D01*
X73302960Y-34975435D01*
X74271040Y-34975435D01*
X75057000Y-35761395D01*
X75842960Y-34975435D01*
X76811040Y-34975435D01*
X77597000Y-35761395D01*
X78382960Y-34975435D01*
X78315980Y-34735344D01*
X78066952Y-34618244D01*
X77799865Y-34551977D01*
X77524983Y-34539090D01*
X77252867Y-34580078D01*
X76993977Y-34673364D01*
X76878020Y-34735344D01*
X76811040Y-34975435D01*
X75842960Y-34975435D01*
X75775980Y-34735344D01*
X75526952Y-34618244D01*
X75259865Y-34551977D01*
X74984983Y-34539090D01*
X74712867Y-34580078D01*
X74453977Y-34673364D01*
X74338020Y-34735344D01*
X74271040Y-34975435D01*
X73302960Y-34975435D01*
X73235980Y-34735344D01*
X72986952Y-34618244D01*
X72719865Y-34551977D01*
X72444983Y-34539090D01*
X72172867Y-34580078D01*
X71913977Y-34673364D01*
X71798020Y-34735344D01*
X71731040Y-34975435D01*
X70762960Y-34975435D01*
X70695980Y-34735344D01*
X70446952Y-34618244D01*
X70179865Y-34551977D01*
X69904983Y-34539090D01*
X69632867Y-34580078D01*
X69373977Y-34673364D01*
X69258020Y-34735344D01*
X69191040Y-34975435D01*
X68222960Y-34975435D01*
X68155980Y-34735344D01*
X67906952Y-34618244D01*
X67639865Y-34551977D01*
X67364983Y-34539090D01*
X67092867Y-34580078D01*
X66833977Y-34673364D01*
X66718020Y-34735344D01*
X66651040Y-34975435D01*
X65682960Y-34975435D01*
X65615980Y-34735344D01*
X65366952Y-34618244D01*
X65099865Y-34551977D01*
X64824983Y-34539090D01*
X64552867Y-34580078D01*
X64293977Y-34673364D01*
X64178020Y-34735344D01*
X64111040Y-34975435D01*
X63142960Y-34975435D01*
X63075980Y-34735344D01*
X62826952Y-34618244D01*
X62559865Y-34551977D01*
X62284983Y-34539090D01*
X62012867Y-34580078D01*
X61753977Y-34673364D01*
X61638020Y-34735344D01*
X61571040Y-34975435D01*
X60602960Y-34975435D01*
X60535980Y-34735344D01*
X60286952Y-34618244D01*
X60019865Y-34551977D01*
X59744983Y-34539090D01*
X59472867Y-34580078D01*
X59213977Y-34673364D01*
X59098020Y-34735344D01*
X59031040Y-34975435D01*
X58287090Y-34975435D01*
X58167535Y-34855880D01*
X57938727Y-34702995D01*
X57684490Y-34597686D01*
X57414592Y-34544000D01*
X57139408Y-34544000D01*
X56869510Y-34597686D01*
X56615273Y-34702995D01*
X56386465Y-34855880D01*
X56191880Y-35050465D01*
X56038995Y-35279273D01*
X56007000Y-35356515D01*
X55975005Y-35279273D01*
X55822120Y-35050465D01*
X55627535Y-34855880D01*
X55398727Y-34702995D01*
X55144490Y-34597686D01*
X54874592Y-34544000D01*
X54599408Y-34544000D01*
X54329510Y-34597686D01*
X54075273Y-34702995D01*
X53846465Y-34855880D01*
X53651880Y-35050465D01*
X53498995Y-35279273D01*
X53467000Y-35356515D01*
X53435005Y-35279273D01*
X53282120Y-35050465D01*
X53087535Y-34855880D01*
X52858727Y-34702995D01*
X52604490Y-34597686D01*
X52334592Y-34544000D01*
X52059408Y-34544000D01*
X51789510Y-34597686D01*
X51535273Y-34702995D01*
X51306465Y-34855880D01*
X51111880Y-35050465D01*
X50958995Y-35279273D01*
X50853686Y-35533510D01*
X50800000Y-35803408D01*
X47523000Y-35803408D01*
X47523000Y-33045000D01*
X97511000Y-33045000D01*
X97511001Y-51283000D01*
G36*
X70170748Y-44308858D02*
G01*
X70156605Y-44323000D01*
X70170748Y-44337143D01*
X69991143Y-44516748D01*
X69977000Y-44502605D01*
X69962858Y-44516748D01*
X69783253Y-44337143D01*
X69797395Y-44323000D01*
X69783253Y-44308858D01*
X69962858Y-44129253D01*
X69977000Y-44143395D01*
X69991143Y-44129253D01*
X70170748Y-44308858D01*
G37*
X70170748Y-44308858D02*
X70156605Y-44323000D01*
X70170748Y-44337143D01*
X69991143Y-44516748D01*
X69977000Y-44502605D01*
X69962858Y-44516748D01*
X69783253Y-44337143D01*
X69797395Y-44323000D01*
X69783253Y-44308858D01*
X69962858Y-44129253D01*
X69977000Y-44143395D01*
X69991143Y-44129253D01*
X70170748Y-44308858D01*
G36*
X67630748Y-44308858D02*
G01*
X67616605Y-44323000D01*
X67630748Y-44337143D01*
X67451143Y-44516748D01*
X67437000Y-44502605D01*
X67422858Y-44516748D01*
X67243253Y-44337143D01*
X67257395Y-44323000D01*
X67243253Y-44308858D01*
X67422858Y-44129253D01*
X67437000Y-44143395D01*
X67451143Y-44129253D01*
X67630748Y-44308858D01*
G37*
X67630748Y-44308858D02*
X67616605Y-44323000D01*
X67630748Y-44337143D01*
X67451143Y-44516748D01*
X67437000Y-44502605D01*
X67422858Y-44516748D01*
X67243253Y-44337143D01*
X67257395Y-44323000D01*
X67243253Y-44308858D01*
X67422858Y-44129253D01*
X67437000Y-44143395D01*
X67451143Y-44129253D01*
X67630748Y-44308858D01*
G36*
X54930748Y-44308858D02*
G01*
X54916605Y-44323000D01*
X54930748Y-44337143D01*
X54751143Y-44516748D01*
X54737000Y-44502605D01*
X54722858Y-44516748D01*
X54543253Y-44337143D01*
X54557395Y-44323000D01*
X54543253Y-44308858D01*
X54722858Y-44129253D01*
X54737000Y-44143395D01*
X54751143Y-44129253D01*
X54930748Y-44308858D01*
G37*
X54930748Y-44308858D02*
X54916605Y-44323000D01*
X54930748Y-44337143D01*
X54751143Y-44516748D01*
X54737000Y-44502605D01*
X54722858Y-44516748D01*
X54543253Y-44337143D01*
X54557395Y-44323000D01*
X54543253Y-44308858D01*
X54722858Y-44129253D01*
X54737000Y-44143395D01*
X54751143Y-44129253D01*
X54930748Y-44308858D01*
G36*
X65090748Y-44308858D02*
G01*
X65076605Y-44323000D01*
X65090748Y-44337143D01*
X64911143Y-44516748D01*
X64897000Y-44502605D01*
X64882858Y-44516748D01*
X64703253Y-44337143D01*
X64717395Y-44323000D01*
X64703253Y-44308858D01*
X64882858Y-44129253D01*
X64897000Y-44143395D01*
X64911143Y-44129253D01*
X65090748Y-44308858D01*
G37*
X65090748Y-44308858D02*
X65076605Y-44323000D01*
X65090748Y-44337143D01*
X64911143Y-44516748D01*
X64897000Y-44502605D01*
X64882858Y-44516748D01*
X64703253Y-44337143D01*
X64717395Y-44323000D01*
X64703253Y-44308858D01*
X64882858Y-44129253D01*
X64897000Y-44143395D01*
X64911143Y-44129253D01*
X65090748Y-44308858D01*
G36*
X62550748Y-44308858D02*
G01*
X62536605Y-44323000D01*
X62550748Y-44337143D01*
X62371143Y-44516748D01*
X62357000Y-44502605D01*
X62342858Y-44516748D01*
X62163253Y-44337143D01*
X62177395Y-44323000D01*
X62163253Y-44308858D01*
X62342858Y-44129253D01*
X62357000Y-44143395D01*
X62371143Y-44129253D01*
X62550748Y-44308858D01*
G37*
X62550748Y-44308858D02*
X62536605Y-44323000D01*
X62550748Y-44337143D01*
X62371143Y-44516748D01*
X62357000Y-44502605D01*
X62342858Y-44516748D01*
X62163253Y-44337143D01*
X62177395Y-44323000D01*
X62163253Y-44308858D01*
X62342858Y-44129253D01*
X62357000Y-44143395D01*
X62371143Y-44129253D01*
X62550748Y-44308858D01*
G36*
X60010748Y-44308858D02*
G01*
X59996605Y-44323000D01*
X60010748Y-44337143D01*
X59831143Y-44516748D01*
X59817000Y-44502605D01*
X59802858Y-44516748D01*
X59623253Y-44337143D01*
X59637395Y-44323000D01*
X59623253Y-44308858D01*
X59802858Y-44129253D01*
X59817000Y-44143395D01*
X59831143Y-44129253D01*
X60010748Y-44308858D01*
G37*
X60010748Y-44308858D02*
X59996605Y-44323000D01*
X60010748Y-44337143D01*
X59831143Y-44516748D01*
X59817000Y-44502605D01*
X59802858Y-44516748D01*
X59623253Y-44337143D01*
X59637395Y-44323000D01*
X59623253Y-44308858D01*
X59802858Y-44129253D01*
X59817000Y-44143395D01*
X59831143Y-44129253D01*
X60010748Y-44308858D01*
G36*
X57470748Y-44308858D02*
G01*
X57456605Y-44323000D01*
X57470748Y-44337143D01*
X57291143Y-44516748D01*
X57277000Y-44502605D01*
X57262858Y-44516748D01*
X57083253Y-44337143D01*
X57097395Y-44323000D01*
X57083253Y-44308858D01*
X57262858Y-44129253D01*
X57277000Y-44143395D01*
X57291143Y-44129253D01*
X57470748Y-44308858D01*
G37*
X57470748Y-44308858D02*
X57456605Y-44323000D01*
X57470748Y-44337143D01*
X57291143Y-44516748D01*
X57277000Y-44502605D01*
X57262858Y-44516748D01*
X57083253Y-44337143D01*
X57097395Y-44323000D01*
X57083253Y-44308858D01*
X57262858Y-44129253D01*
X57277000Y-44143395D01*
X57291143Y-44129253D01*
X57470748Y-44308858D01*
G36*
X72710748Y-44308858D02*
G01*
X72696605Y-44323000D01*
X72710748Y-44337143D01*
X72531143Y-44516748D01*
X72517000Y-44502605D01*
X72502858Y-44516748D01*
X72323253Y-44337143D01*
X72337395Y-44323000D01*
X72323253Y-44308858D01*
X72502858Y-44129253D01*
X72517000Y-44143395D01*
X72531143Y-44129253D01*
X72710748Y-44308858D01*
G37*
X72710748Y-44308858D02*
X72696605Y-44323000D01*
X72710748Y-44337143D01*
X72531143Y-44516748D01*
X72517000Y-44502605D01*
X72502858Y-44516748D01*
X72323253Y-44337143D01*
X72337395Y-44323000D01*
X72323253Y-44308858D01*
X72502858Y-44129253D01*
X72517000Y-44143395D01*
X72531143Y-44129253D01*
X72710748Y-44308858D01*
G36*
X75250748Y-44308858D02*
G01*
X75236605Y-44323000D01*
X75250748Y-44337143D01*
X75071143Y-44516748D01*
X75057000Y-44502605D01*
X75042858Y-44516748D01*
X74863253Y-44337143D01*
X74877395Y-44323000D01*
X74863253Y-44308858D01*
X75042858Y-44129253D01*
X75057000Y-44143395D01*
X75071143Y-44129253D01*
X75250748Y-44308858D01*
G37*
X75250748Y-44308858D02*
X75236605Y-44323000D01*
X75250748Y-44337143D01*
X75071143Y-44516748D01*
X75057000Y-44502605D01*
X75042858Y-44516748D01*
X74863253Y-44337143D01*
X74877395Y-44323000D01*
X74863253Y-44308858D01*
X75042858Y-44129253D01*
X75057000Y-44143395D01*
X75071143Y-44129253D01*
X75250748Y-44308858D01*
G36*
X77790748Y-44308858D02*
G01*
X77776605Y-44323000D01*
X77790748Y-44337143D01*
X77611143Y-44516748D01*
X77597000Y-44502605D01*
X77582858Y-44516748D01*
X77403253Y-44337143D01*
X77417395Y-44323000D01*
X77403253Y-44308858D01*
X77582858Y-44129253D01*
X77597000Y-44143395D01*
X77611143Y-44129253D01*
X77790748Y-44308858D01*
G37*
X77790748Y-44308858D02*
X77776605Y-44323000D01*
X77790748Y-44337143D01*
X77611143Y-44516748D01*
X77597000Y-44502605D01*
X77582858Y-44516748D01*
X77403253Y-44337143D01*
X77417395Y-44323000D01*
X77403253Y-44308858D01*
X77582858Y-44129253D01*
X77597000Y-44143395D01*
X77611143Y-44129253D01*
X77790748Y-44308858D01*
G36*
X80330748Y-44308858D02*
G01*
X80316605Y-44323000D01*
X80330748Y-44337143D01*
X80151143Y-44516748D01*
X80137000Y-44502605D01*
X80122858Y-44516748D01*
X79943253Y-44337143D01*
X79957395Y-44323000D01*
X79943253Y-44308858D01*
X80122858Y-44129253D01*
X80137000Y-44143395D01*
X80151143Y-44129253D01*
X80330748Y-44308858D01*
G37*
X80330748Y-44308858D02*
X80316605Y-44323000D01*
X80330748Y-44337143D01*
X80151143Y-44516748D01*
X80137000Y-44502605D01*
X80122858Y-44516748D01*
X79943253Y-44337143D01*
X79957395Y-44323000D01*
X79943253Y-44308858D01*
X80122858Y-44129253D01*
X80137000Y-44143395D01*
X80151143Y-44129253D01*
X80330748Y-44308858D01*
G36*
X82870748Y-44308858D02*
G01*
X82856605Y-44323000D01*
X82870748Y-44337143D01*
X82691143Y-44516748D01*
X82677000Y-44502605D01*
X82662858Y-44516748D01*
X82483253Y-44337143D01*
X82497395Y-44323000D01*
X82483253Y-44308858D01*
X82662858Y-44129253D01*
X82677000Y-44143395D01*
X82691143Y-44129253D01*
X82870748Y-44308858D01*
G37*
X82870748Y-44308858D02*
X82856605Y-44323000D01*
X82870748Y-44337143D01*
X82691143Y-44516748D01*
X82677000Y-44502605D01*
X82662858Y-44516748D01*
X82483253Y-44337143D01*
X82497395Y-44323000D01*
X82483253Y-44308858D01*
X82662858Y-44129253D01*
X82677000Y-44143395D01*
X82691143Y-44129253D01*
X82870748Y-44308858D01*
G36*
X85410748Y-44308858D02*
G01*
X85396605Y-44323000D01*
X85410748Y-44337143D01*
X85231143Y-44516748D01*
X85217000Y-44502605D01*
X85202858Y-44516748D01*
X85023253Y-44337143D01*
X85037395Y-44323000D01*
X85023253Y-44308858D01*
X85202858Y-44129253D01*
X85217000Y-44143395D01*
X85231143Y-44129253D01*
X85410748Y-44308858D01*
G37*
X85410748Y-44308858D02*
X85396605Y-44323000D01*
X85410748Y-44337143D01*
X85231143Y-44516748D01*
X85217000Y-44502605D01*
X85202858Y-44516748D01*
X85023253Y-44337143D01*
X85037395Y-44323000D01*
X85023253Y-44308858D01*
X85202858Y-44129253D01*
X85217000Y-44143395D01*
X85231143Y-44129253D01*
X85410748Y-44308858D01*
M02*
