M48
; DRILL file {KiCad (5.1.5-0-10_14)} date Saturday, 21 March 2020 at 02:00:27 pm
; FORMAT={-:-/ absolute / metric / decimal}
; #@! TF.CreationDate,2020-03-21T14:00:27+11:00
; #@! TF.GenerationSoftware,Kicad,Pcbnew,(5.1.5-0-10_14)
; #@! TF.FileFunction,Plated,1,2,PTH
FMAT,2
METRIC
T1C0.965
%
G90
G05
T1
X52.197Y-35.941
X52.197Y-38.481
X54.737Y-35.941
X54.737Y-38.481
X57.277Y-35.941
X57.277Y-38.481
X59.817Y-35.941
X59.817Y-38.481
X62.357Y-35.941
X62.357Y-38.481
X64.897Y-35.941
X64.897Y-38.481
X67.437Y-35.941
X67.437Y-38.481
X69.977Y-35.941
X69.977Y-38.481
X72.517Y-35.941
X72.517Y-38.481
X75.057Y-35.941
X75.057Y-38.481
X77.597Y-35.941
X77.597Y-38.481
X80.137Y-35.941
X80.137Y-38.481
X82.677Y-35.941
X82.677Y-38.481
X85.217Y-35.941
X85.217Y-38.481
X87.757Y-35.941
X87.757Y-38.481
X90.297Y-35.941
X90.297Y-38.481
X92.837Y-35.941
X92.837Y-38.481
X52.197Y-44.323
X52.197Y-49.403
X54.737Y-44.323
X54.737Y-49.403
X57.277Y-44.323
X57.277Y-49.403
X59.817Y-44.323
X59.817Y-49.403
X62.357Y-44.323
X62.357Y-49.403
X64.897Y-44.323
X64.897Y-49.403
X67.437Y-44.323
X67.437Y-49.403
X69.977Y-44.323
X69.977Y-49.403
X72.517Y-44.323
X72.517Y-49.403
X75.057Y-44.323
X75.057Y-49.403
X77.597Y-44.323
X77.597Y-49.403
X80.137Y-44.323
X80.137Y-49.403
X82.677Y-44.323
X82.677Y-49.403
X85.217Y-44.323
X85.217Y-49.403
X87.757Y-44.323
X87.757Y-49.403
X90.297Y-44.323
X90.297Y-49.403
X92.837Y-44.323
X92.837Y-49.403
T0
M30
