%FSLAX45Y45*%
G04 Gerber Fmt 4.5, Leading zero omitted, Abs format (unit mm)*
G04 Created by KiCad (PCBNEW (5.1.5-0-10_14)) date 2020-03-21 14:00:26*
%MOMM*%
%LPD*%
G04 APERTURE LIST*
%TA.AperFunction,Profile*%
%ADD10C,0.050000*%
%TD*%
%ADD11C,0.200000*%
%ADD12C,0.300000*%
G04 APERTURE END LIST*
D10*
X4686300Y-5194300D02*
X4686300Y-3238500D01*
X9817100Y-5194300D02*
X4686300Y-5194300D01*
X9817100Y-3238500D02*
X9817100Y-5194300D01*
X4686300Y-3238500D02*
X9817100Y-3238500D01*
D11*
D12*
X4970228Y-5662514D02*
X4970228Y-5362514D01*
X5041657Y-5362514D01*
X5084514Y-5376800D01*
X5113086Y-5405372D01*
X5127371Y-5433943D01*
X5141657Y-5491086D01*
X5141657Y-5533943D01*
X5127371Y-5591086D01*
X5113086Y-5619657D01*
X5084514Y-5648229D01*
X5041657Y-5662514D01*
X4970228Y-5662514D01*
X5270228Y-5662514D02*
X5270228Y-5462514D01*
X5270228Y-5519657D02*
X5284514Y-5491086D01*
X5298800Y-5476800D01*
X5327371Y-5462514D01*
X5355943Y-5462514D01*
X5455943Y-5662514D02*
X5455943Y-5462514D01*
X5455943Y-5362514D02*
X5441657Y-5376800D01*
X5455943Y-5391086D01*
X5470228Y-5376800D01*
X5455943Y-5362514D01*
X5455943Y-5391086D01*
X5641657Y-5662514D02*
X5613086Y-5648229D01*
X5598800Y-5619657D01*
X5598800Y-5362514D01*
X5798800Y-5662514D02*
X5770228Y-5648229D01*
X5755943Y-5619657D01*
X5755943Y-5362514D01*
X6141657Y-5662514D02*
X6141657Y-5362514D01*
X6241657Y-5576800D01*
X6341657Y-5362514D01*
X6341657Y-5662514D01*
X6613086Y-5662514D02*
X6613086Y-5505372D01*
X6598800Y-5476800D01*
X6570228Y-5462514D01*
X6513086Y-5462514D01*
X6484514Y-5476800D01*
X6613086Y-5648229D02*
X6584514Y-5662514D01*
X6513086Y-5662514D01*
X6484514Y-5648229D01*
X6470228Y-5619657D01*
X6470228Y-5591086D01*
X6484514Y-5562514D01*
X6513086Y-5548229D01*
X6584514Y-5548229D01*
X6613086Y-5533943D01*
X6755943Y-5462514D02*
X6755943Y-5762514D01*
X6755943Y-5476800D02*
X6784514Y-5462514D01*
X6841657Y-5462514D01*
X6870228Y-5476800D01*
X6884514Y-5491086D01*
X6898800Y-5519657D01*
X6898800Y-5605371D01*
X6884514Y-5633943D01*
X6870228Y-5648229D01*
X6841657Y-5662514D01*
X6784514Y-5662514D01*
X6755943Y-5648229D01*
X7027371Y-5633943D02*
X7041657Y-5648229D01*
X7027371Y-5662514D01*
X7013086Y-5648229D01*
X7027371Y-5633943D01*
X7027371Y-5662514D01*
X7027371Y-5476800D02*
X7041657Y-5491086D01*
X7027371Y-5505372D01*
X7013086Y-5491086D01*
X7027371Y-5476800D01*
X7027371Y-5505372D01*
M02*
