%FSLAX45Y45*%
G04 Gerber Fmt 4.5, Leading zero omitted, Abs format (unit mm)*
G04 Created by KiCad (PCBNEW (5.1.5-0-10_14)) date 2020-03-21 14:00:26*
%MOMM*%
%LPD*%
G04 APERTURE LIST*
%TA.AperFunction,Profile*%
%ADD10C,0.050000*%
%TD*%
%ADD11C,0.200000*%
%ADD12C,0.300000*%
G04 APERTURE END LIST*
D10*
X4686300Y-5194300D02*
X4686300Y-3238500D01*
X9817100Y-5194300D02*
X4686300Y-5194300D01*
X9817100Y-3238500D02*
X9817100Y-5194300D01*
X4686300Y-3238500D02*
X9817100Y-3238500D01*
D11*
X5171450Y-3545850D02*
X5267950Y-3642350D01*
X5267950Y-3545850D02*
X5171450Y-3642350D01*
X5171450Y-3799850D02*
X5267950Y-3896350D01*
X5267950Y-3799850D02*
X5171450Y-3896350D01*
X5425450Y-3545850D02*
X5521950Y-3642350D01*
X5521950Y-3545850D02*
X5425450Y-3642350D01*
X5425450Y-3799850D02*
X5521950Y-3896350D01*
X5521950Y-3799850D02*
X5425450Y-3896350D01*
X5679450Y-3545850D02*
X5775950Y-3642350D01*
X5775950Y-3545850D02*
X5679450Y-3642350D01*
X5679450Y-3799850D02*
X5775950Y-3896350D01*
X5775950Y-3799850D02*
X5679450Y-3896350D01*
X5933450Y-3545850D02*
X6029950Y-3642350D01*
X6029950Y-3545850D02*
X5933450Y-3642350D01*
X5933450Y-3799850D02*
X6029950Y-3896350D01*
X6029950Y-3799850D02*
X5933450Y-3896350D01*
X6187450Y-3545850D02*
X6283950Y-3642350D01*
X6283950Y-3545850D02*
X6187450Y-3642350D01*
X6187450Y-3799850D02*
X6283950Y-3896350D01*
X6283950Y-3799850D02*
X6187450Y-3896350D01*
X6441450Y-3545850D02*
X6537950Y-3642350D01*
X6537950Y-3545850D02*
X6441450Y-3642350D01*
X6441450Y-3799850D02*
X6537950Y-3896350D01*
X6537950Y-3799850D02*
X6441450Y-3896350D01*
X6695450Y-3545850D02*
X6791950Y-3642350D01*
X6791950Y-3545850D02*
X6695450Y-3642350D01*
X6695450Y-3799850D02*
X6791950Y-3896350D01*
X6791950Y-3799850D02*
X6695450Y-3896350D01*
X6949450Y-3545850D02*
X7045950Y-3642350D01*
X7045950Y-3545850D02*
X6949450Y-3642350D01*
X6949450Y-3799850D02*
X7045950Y-3896350D01*
X7045950Y-3799850D02*
X6949450Y-3896350D01*
X7203450Y-3545850D02*
X7299950Y-3642350D01*
X7299950Y-3545850D02*
X7203450Y-3642350D01*
X7203450Y-3799850D02*
X7299950Y-3896350D01*
X7299950Y-3799850D02*
X7203450Y-3896350D01*
X7457450Y-3545850D02*
X7553950Y-3642350D01*
X7553950Y-3545850D02*
X7457450Y-3642350D01*
X7457450Y-3799850D02*
X7553950Y-3896350D01*
X7553950Y-3799850D02*
X7457450Y-3896350D01*
X7711450Y-3545850D02*
X7807950Y-3642350D01*
X7807950Y-3545850D02*
X7711450Y-3642350D01*
X7711450Y-3799850D02*
X7807950Y-3896350D01*
X7807950Y-3799850D02*
X7711450Y-3896350D01*
X7965450Y-3545850D02*
X8061950Y-3642350D01*
X8061950Y-3545850D02*
X7965450Y-3642350D01*
X7965450Y-3799850D02*
X8061950Y-3896350D01*
X8061950Y-3799850D02*
X7965450Y-3896350D01*
X8219450Y-3545850D02*
X8315950Y-3642350D01*
X8315950Y-3545850D02*
X8219450Y-3642350D01*
X8219450Y-3799850D02*
X8315950Y-3896350D01*
X8315950Y-3799850D02*
X8219450Y-3896350D01*
X8473450Y-3545850D02*
X8569950Y-3642350D01*
X8569950Y-3545850D02*
X8473450Y-3642350D01*
X8473450Y-3799850D02*
X8569950Y-3896350D01*
X8569950Y-3799850D02*
X8473450Y-3896350D01*
X8727450Y-3545850D02*
X8823950Y-3642350D01*
X8823950Y-3545850D02*
X8727450Y-3642350D01*
X8727450Y-3799850D02*
X8823950Y-3896350D01*
X8823950Y-3799850D02*
X8727450Y-3896350D01*
X8981450Y-3545850D02*
X9077950Y-3642350D01*
X9077950Y-3545850D02*
X8981450Y-3642350D01*
X8981450Y-3799850D02*
X9077950Y-3896350D01*
X9077950Y-3799850D02*
X8981450Y-3896350D01*
X9235450Y-3545850D02*
X9331950Y-3642350D01*
X9331950Y-3545850D02*
X9235450Y-3642350D01*
X9235450Y-3799850D02*
X9331950Y-3896350D01*
X9331950Y-3799850D02*
X9235450Y-3896350D01*
X5171450Y-4384050D02*
X5267950Y-4480550D01*
X5267950Y-4384050D02*
X5171450Y-4480550D01*
X5171450Y-4892050D02*
X5267950Y-4988550D01*
X5267950Y-4892050D02*
X5171450Y-4988550D01*
X5425450Y-4384050D02*
X5521950Y-4480550D01*
X5521950Y-4384050D02*
X5425450Y-4480550D01*
X5425450Y-4892050D02*
X5521950Y-4988550D01*
X5521950Y-4892050D02*
X5425450Y-4988550D01*
X5679450Y-4384050D02*
X5775950Y-4480550D01*
X5775950Y-4384050D02*
X5679450Y-4480550D01*
X5679450Y-4892050D02*
X5775950Y-4988550D01*
X5775950Y-4892050D02*
X5679450Y-4988550D01*
X5933450Y-4384050D02*
X6029950Y-4480550D01*
X6029950Y-4384050D02*
X5933450Y-4480550D01*
X5933450Y-4892050D02*
X6029950Y-4988550D01*
X6029950Y-4892050D02*
X5933450Y-4988550D01*
X6187450Y-4384050D02*
X6283950Y-4480550D01*
X6283950Y-4384050D02*
X6187450Y-4480550D01*
X6187450Y-4892050D02*
X6283950Y-4988550D01*
X6283950Y-4892050D02*
X6187450Y-4988550D01*
X6441450Y-4384050D02*
X6537950Y-4480550D01*
X6537950Y-4384050D02*
X6441450Y-4480550D01*
X6441450Y-4892050D02*
X6537950Y-4988550D01*
X6537950Y-4892050D02*
X6441450Y-4988550D01*
X6695450Y-4384050D02*
X6791950Y-4480550D01*
X6791950Y-4384050D02*
X6695450Y-4480550D01*
X6695450Y-4892050D02*
X6791950Y-4988550D01*
X6791950Y-4892050D02*
X6695450Y-4988550D01*
X6949450Y-4384050D02*
X7045950Y-4480550D01*
X7045950Y-4384050D02*
X6949450Y-4480550D01*
X6949450Y-4892050D02*
X7045950Y-4988550D01*
X7045950Y-4892050D02*
X6949450Y-4988550D01*
X7203450Y-4384050D02*
X7299950Y-4480550D01*
X7299950Y-4384050D02*
X7203450Y-4480550D01*
X7203450Y-4892050D02*
X7299950Y-4988550D01*
X7299950Y-4892050D02*
X7203450Y-4988550D01*
X7457450Y-4384050D02*
X7553950Y-4480550D01*
X7553950Y-4384050D02*
X7457450Y-4480550D01*
X7457450Y-4892050D02*
X7553950Y-4988550D01*
X7553950Y-4892050D02*
X7457450Y-4988550D01*
X7711450Y-4384050D02*
X7807950Y-4480550D01*
X7807950Y-4384050D02*
X7711450Y-4480550D01*
X7711450Y-4892050D02*
X7807950Y-4988550D01*
X7807950Y-4892050D02*
X7711450Y-4988550D01*
X7965450Y-4384050D02*
X8061950Y-4480550D01*
X8061950Y-4384050D02*
X7965450Y-4480550D01*
X7965450Y-4892050D02*
X8061950Y-4988550D01*
X8061950Y-4892050D02*
X7965450Y-4988550D01*
X8219450Y-4384050D02*
X8315950Y-4480550D01*
X8315950Y-4384050D02*
X8219450Y-4480550D01*
X8219450Y-4892050D02*
X8315950Y-4988550D01*
X8315950Y-4892050D02*
X8219450Y-4988550D01*
X8473450Y-4384050D02*
X8569950Y-4480550D01*
X8569950Y-4384050D02*
X8473450Y-4480550D01*
X8473450Y-4892050D02*
X8569950Y-4988550D01*
X8569950Y-4892050D02*
X8473450Y-4988550D01*
X8727450Y-4384050D02*
X8823950Y-4480550D01*
X8823950Y-4384050D02*
X8727450Y-4480550D01*
X8727450Y-4892050D02*
X8823950Y-4988550D01*
X8823950Y-4892050D02*
X8727450Y-4988550D01*
X8981450Y-4384050D02*
X9077950Y-4480550D01*
X9077950Y-4384050D02*
X8981450Y-4480550D01*
X8981450Y-4892050D02*
X9077950Y-4988550D01*
X9077950Y-4892050D02*
X8981450Y-4988550D01*
X9235450Y-4384050D02*
X9331950Y-4480550D01*
X9331950Y-4384050D02*
X9235450Y-4480550D01*
X9235450Y-4892050D02*
X9331950Y-4988550D01*
X9331950Y-4892050D02*
X9235450Y-4988550D01*
D12*
X4970228Y-5662514D02*
X4970228Y-5362514D01*
X5041657Y-5362514D01*
X5084514Y-5376800D01*
X5113086Y-5405372D01*
X5127371Y-5433943D01*
X5141657Y-5491086D01*
X5141657Y-5533943D01*
X5127371Y-5591086D01*
X5113086Y-5619657D01*
X5084514Y-5648229D01*
X5041657Y-5662514D01*
X4970228Y-5662514D01*
X5270228Y-5662514D02*
X5270228Y-5462514D01*
X5270228Y-5519657D02*
X5284514Y-5491086D01*
X5298800Y-5476800D01*
X5327371Y-5462514D01*
X5355943Y-5462514D01*
X5455943Y-5662514D02*
X5455943Y-5462514D01*
X5455943Y-5362514D02*
X5441657Y-5376800D01*
X5455943Y-5391086D01*
X5470228Y-5376800D01*
X5455943Y-5362514D01*
X5455943Y-5391086D01*
X5641657Y-5662514D02*
X5613086Y-5648229D01*
X5598800Y-5619657D01*
X5598800Y-5362514D01*
X5798800Y-5662514D02*
X5770228Y-5648229D01*
X5755943Y-5619657D01*
X5755943Y-5362514D01*
X6141657Y-5662514D02*
X6141657Y-5362514D01*
X6241657Y-5576800D01*
X6341657Y-5362514D01*
X6341657Y-5662514D01*
X6613086Y-5662514D02*
X6613086Y-5505372D01*
X6598800Y-5476800D01*
X6570228Y-5462514D01*
X6513086Y-5462514D01*
X6484514Y-5476800D01*
X6613086Y-5648229D02*
X6584514Y-5662514D01*
X6513086Y-5662514D01*
X6484514Y-5648229D01*
X6470228Y-5619657D01*
X6470228Y-5591086D01*
X6484514Y-5562514D01*
X6513086Y-5548229D01*
X6584514Y-5548229D01*
X6613086Y-5533943D01*
X6755943Y-5462514D02*
X6755943Y-5762514D01*
X6755943Y-5476800D02*
X6784514Y-5462514D01*
X6841657Y-5462514D01*
X6870228Y-5476800D01*
X6884514Y-5491086D01*
X6898800Y-5519657D01*
X6898800Y-5605371D01*
X6884514Y-5633943D01*
X6870228Y-5648229D01*
X6841657Y-5662514D01*
X6784514Y-5662514D01*
X6755943Y-5648229D01*
X7027371Y-5633943D02*
X7041657Y-5648229D01*
X7027371Y-5662514D01*
X7013086Y-5648229D01*
X7027371Y-5633943D01*
X7027371Y-5662514D01*
X7027371Y-5476800D02*
X7041657Y-5491086D01*
X7027371Y-5505372D01*
X7013086Y-5491086D01*
X7027371Y-5476800D01*
X7027371Y-5505372D01*
X4587300Y-6108550D02*
X4683800Y-6205050D01*
X4683800Y-6108550D02*
X4587300Y-6205050D01*
X5027371Y-5992514D02*
X5055943Y-5992514D01*
X5084514Y-6006800D01*
X5098800Y-6021086D01*
X5113086Y-6049657D01*
X5127371Y-6106800D01*
X5127371Y-6178229D01*
X5113086Y-6235371D01*
X5098800Y-6263943D01*
X5084514Y-6278229D01*
X5055943Y-6292514D01*
X5027371Y-6292514D01*
X4998800Y-6278229D01*
X4984514Y-6263943D01*
X4970228Y-6235371D01*
X4955943Y-6178229D01*
X4955943Y-6106800D01*
X4970228Y-6049657D01*
X4984514Y-6021086D01*
X4998800Y-6006800D01*
X5027371Y-5992514D01*
X5255943Y-6263943D02*
X5270228Y-6278229D01*
X5255943Y-6292514D01*
X5241657Y-6278229D01*
X5255943Y-6263943D01*
X5255943Y-6292514D01*
X5413086Y-6292514D02*
X5470228Y-6292514D01*
X5498800Y-6278229D01*
X5513086Y-6263943D01*
X5541657Y-6221086D01*
X5555943Y-6163943D01*
X5555943Y-6049657D01*
X5541657Y-6021086D01*
X5527371Y-6006800D01*
X5498800Y-5992514D01*
X5441657Y-5992514D01*
X5413086Y-6006800D01*
X5398800Y-6021086D01*
X5384514Y-6049657D01*
X5384514Y-6121086D01*
X5398800Y-6149657D01*
X5413086Y-6163943D01*
X5441657Y-6178229D01*
X5498800Y-6178229D01*
X5527371Y-6163943D01*
X5541657Y-6149657D01*
X5555943Y-6121086D01*
X5813086Y-5992514D02*
X5755943Y-5992514D01*
X5727371Y-6006800D01*
X5713086Y-6021086D01*
X5684514Y-6063943D01*
X5670228Y-6121086D01*
X5670228Y-6235371D01*
X5684514Y-6263943D01*
X5698800Y-6278229D01*
X5727371Y-6292514D01*
X5784514Y-6292514D01*
X5813086Y-6278229D01*
X5827371Y-6263943D01*
X5841657Y-6235371D01*
X5841657Y-6163943D01*
X5827371Y-6135371D01*
X5813086Y-6121086D01*
X5784514Y-6106800D01*
X5727371Y-6106800D01*
X5698800Y-6121086D01*
X5684514Y-6135371D01*
X5670228Y-6163943D01*
X5970228Y-6292514D02*
X5970228Y-6092514D01*
X5970228Y-6121086D02*
X5984514Y-6106800D01*
X6013086Y-6092514D01*
X6055943Y-6092514D01*
X6084514Y-6106800D01*
X6098800Y-6135371D01*
X6098800Y-6292514D01*
X6098800Y-6135371D02*
X6113086Y-6106800D01*
X6141657Y-6092514D01*
X6184514Y-6092514D01*
X6213086Y-6106800D01*
X6227371Y-6135371D01*
X6227371Y-6292514D01*
X6370228Y-6292514D02*
X6370228Y-6092514D01*
X6370228Y-6121086D02*
X6384514Y-6106800D01*
X6413086Y-6092514D01*
X6455943Y-6092514D01*
X6484514Y-6106800D01*
X6498800Y-6135371D01*
X6498800Y-6292514D01*
X6498800Y-6135371D02*
X6513086Y-6106800D01*
X6541657Y-6092514D01*
X6584514Y-6092514D01*
X6613086Y-6106800D01*
X6627371Y-6135371D01*
X6627371Y-6292514D01*
X7213086Y-5978229D02*
X6955943Y-6363943D01*
X7598800Y-5992514D02*
X7627371Y-5992514D01*
X7655943Y-6006800D01*
X7670228Y-6021086D01*
X7684514Y-6049657D01*
X7698800Y-6106800D01*
X7698800Y-6178229D01*
X7684514Y-6235371D01*
X7670228Y-6263943D01*
X7655943Y-6278229D01*
X7627371Y-6292514D01*
X7598800Y-6292514D01*
X7570228Y-6278229D01*
X7555943Y-6263943D01*
X7541657Y-6235371D01*
X7527371Y-6178229D01*
X7527371Y-6106800D01*
X7541657Y-6049657D01*
X7555943Y-6021086D01*
X7570228Y-6006800D01*
X7598800Y-5992514D01*
X7827371Y-6263943D02*
X7841657Y-6278229D01*
X7827371Y-6292514D01*
X7813086Y-6278229D01*
X7827371Y-6263943D01*
X7827371Y-6292514D01*
X8027371Y-5992514D02*
X8055943Y-5992514D01*
X8084514Y-6006800D01*
X8098800Y-6021086D01*
X8113086Y-6049657D01*
X8127371Y-6106800D01*
X8127371Y-6178229D01*
X8113086Y-6235371D01*
X8098800Y-6263943D01*
X8084514Y-6278229D01*
X8055943Y-6292514D01*
X8027371Y-6292514D01*
X7998800Y-6278229D01*
X7984514Y-6263943D01*
X7970228Y-6235371D01*
X7955943Y-6178229D01*
X7955943Y-6106800D01*
X7970228Y-6049657D01*
X7984514Y-6021086D01*
X7998800Y-6006800D01*
X8027371Y-5992514D01*
X8227371Y-5992514D02*
X8413086Y-5992514D01*
X8313086Y-6106800D01*
X8355943Y-6106800D01*
X8384514Y-6121086D01*
X8398800Y-6135371D01*
X8413086Y-6163943D01*
X8413086Y-6235371D01*
X8398800Y-6263943D01*
X8384514Y-6278229D01*
X8355943Y-6292514D01*
X8270228Y-6292514D01*
X8241657Y-6278229D01*
X8227371Y-6263943D01*
X8584514Y-6121086D02*
X8555943Y-6106800D01*
X8541657Y-6092514D01*
X8527371Y-6063943D01*
X8527371Y-6049657D01*
X8541657Y-6021086D01*
X8555943Y-6006800D01*
X8584514Y-5992514D01*
X8641657Y-5992514D01*
X8670228Y-6006800D01*
X8684514Y-6021086D01*
X8698800Y-6049657D01*
X8698800Y-6063943D01*
X8684514Y-6092514D01*
X8670228Y-6106800D01*
X8641657Y-6121086D01*
X8584514Y-6121086D01*
X8555943Y-6135371D01*
X8541657Y-6149657D01*
X8527371Y-6178229D01*
X8527371Y-6235371D01*
X8541657Y-6263943D01*
X8555943Y-6278229D01*
X8584514Y-6292514D01*
X8641657Y-6292514D01*
X8670228Y-6278229D01*
X8684514Y-6263943D01*
X8698800Y-6235371D01*
X8698800Y-6178229D01*
X8684514Y-6149657D01*
X8670228Y-6135371D01*
X8641657Y-6121086D01*
X8813086Y-5992514D02*
X8813086Y-6049657D01*
X8927371Y-5992514D02*
X8927371Y-6049657D01*
X9370228Y-6406800D02*
X9355943Y-6392514D01*
X9327371Y-6349657D01*
X9313086Y-6321086D01*
X9298800Y-6278229D01*
X9284514Y-6206800D01*
X9284514Y-6149657D01*
X9298800Y-6078229D01*
X9313086Y-6035371D01*
X9327371Y-6006800D01*
X9355943Y-5963943D01*
X9370228Y-5949657D01*
X9613086Y-5992514D02*
X9555943Y-5992514D01*
X9527371Y-6006800D01*
X9513086Y-6021086D01*
X9484514Y-6063943D01*
X9470228Y-6121086D01*
X9470228Y-6235371D01*
X9484514Y-6263943D01*
X9498800Y-6278229D01*
X9527371Y-6292514D01*
X9584514Y-6292514D01*
X9613086Y-6278229D01*
X9627371Y-6263943D01*
X9641657Y-6235371D01*
X9641657Y-6163943D01*
X9627371Y-6135371D01*
X9613086Y-6121086D01*
X9584514Y-6106800D01*
X9527371Y-6106800D01*
X9498800Y-6121086D01*
X9484514Y-6135371D01*
X9470228Y-6163943D01*
X9813086Y-6121086D02*
X9784514Y-6106800D01*
X9770228Y-6092514D01*
X9755943Y-6063943D01*
X9755943Y-6049657D01*
X9770228Y-6021086D01*
X9784514Y-6006800D01*
X9813086Y-5992514D01*
X9870228Y-5992514D01*
X9898800Y-6006800D01*
X9913086Y-6021086D01*
X9927371Y-6049657D01*
X9927371Y-6063943D01*
X9913086Y-6092514D01*
X9898800Y-6106800D01*
X9870228Y-6121086D01*
X9813086Y-6121086D01*
X9784514Y-6135371D01*
X9770228Y-6149657D01*
X9755943Y-6178229D01*
X9755943Y-6235371D01*
X9770228Y-6263943D01*
X9784514Y-6278229D01*
X9813086Y-6292514D01*
X9870228Y-6292514D01*
X9898800Y-6278229D01*
X9913086Y-6263943D01*
X9927371Y-6235371D01*
X9927371Y-6178229D01*
X9913086Y-6149657D01*
X9898800Y-6135371D01*
X9870228Y-6121086D01*
X10284514Y-6292514D02*
X10284514Y-5992514D01*
X10413086Y-6292514D02*
X10413086Y-6135371D01*
X10398800Y-6106800D01*
X10370228Y-6092514D01*
X10327371Y-6092514D01*
X10298800Y-6106800D01*
X10284514Y-6121086D01*
X10598800Y-6292514D02*
X10570228Y-6278229D01*
X10555943Y-6263943D01*
X10541657Y-6235371D01*
X10541657Y-6149657D01*
X10555943Y-6121086D01*
X10570228Y-6106800D01*
X10598800Y-6092514D01*
X10641657Y-6092514D01*
X10670228Y-6106800D01*
X10684514Y-6121086D01*
X10698800Y-6149657D01*
X10698800Y-6235371D01*
X10684514Y-6263943D01*
X10670228Y-6278229D01*
X10641657Y-6292514D01*
X10598800Y-6292514D01*
X10870228Y-6292514D02*
X10841657Y-6278229D01*
X10827371Y-6249657D01*
X10827371Y-5992514D01*
X11098800Y-6278229D02*
X11070228Y-6292514D01*
X11013086Y-6292514D01*
X10984514Y-6278229D01*
X10970228Y-6249657D01*
X10970228Y-6135371D01*
X10984514Y-6106800D01*
X11013086Y-6092514D01*
X11070228Y-6092514D01*
X11098800Y-6106800D01*
X11113086Y-6135371D01*
X11113086Y-6163943D01*
X10970228Y-6192514D01*
X11227371Y-6278229D02*
X11255943Y-6292514D01*
X11313086Y-6292514D01*
X11341657Y-6278229D01*
X11355943Y-6249657D01*
X11355943Y-6235371D01*
X11341657Y-6206800D01*
X11313086Y-6192514D01*
X11270228Y-6192514D01*
X11241657Y-6178229D01*
X11227371Y-6149657D01*
X11227371Y-6135371D01*
X11241657Y-6106800D01*
X11270228Y-6092514D01*
X11313086Y-6092514D01*
X11341657Y-6106800D01*
X11455943Y-6406800D02*
X11470228Y-6392514D01*
X11498800Y-6349657D01*
X11513086Y-6321086D01*
X11527371Y-6278229D01*
X11541657Y-6206800D01*
X11541657Y-6149657D01*
X11527371Y-6078229D01*
X11513086Y-6035371D01*
X11498800Y-6006800D01*
X11470228Y-5963943D01*
X11455943Y-5949657D01*
M02*
